STARTFONT 2.1
FONT -FontForge-Butcherman-Book-R-Normal--20-200-72-72-P-108-ISO10646-1
SIZE 20 72 72
FONTBOUNDINGBOX 30 38 -2 -13
COMMENT "Generated by fontforge, http://fontforge.sourceforge.net"
COMMENT "Copyright (c) 2011, Typomondo, with Reserved Font Name  "Butcherman"."
STARTPROPERTIES 40
FOUNDRY "FontForge"
FAMILY_NAME "Butcherman"
WEIGHT_NAME "Book"
SLANT "R"
SETWIDTH_NAME "Normal"
ADD_STYLE_NAME ""
PIXEL_SIZE 20
POINT_SIZE 200
RESOLUTION_X 72
RESOLUTION_Y 72
SPACING "P"
AVERAGE_WIDTH 108
CHARSET_REGISTRY "ISO10646"
CHARSET_ENCODING "1"
FONTNAME_REGISTRY ""
CHARSET_COLLECTIONS "ISO8859-2 ISO8859-9 ISO8859-4 ISO10646-1"
FONT_NAME "Butcherman-Regular"
FACE_NAME "Butcherman Regular"
COPYRIGHT "Copyright (c) 2011, Typomondo, with Reserved Font Name  "Butcherman"."
FONT_VERSION "001.004"
FONT_ASCENT 16
FONT_DESCENT 4
UNDERLINE_POSITION -2
UNDERLINE_THICKNESS 1
X_HEIGHT 14
CAP_HEIGHT 14
DEFAULT_CHAR 3
RAW_ASCENT 799
RAW_DESCENT 200
NORM_SPACE 3
RELATIVE_WEIGHT 40
RELATIVE_SETWIDTH 50
SUPERSCRIPT_X 0
SUPERSCRIPT_Y 6
SUPERSCRIPT_SIZE 11
SUBSCRIPT_X 0
SUBSCRIPT_Y 1
SUBSCRIPT_SIZE 11
AVG_LOWERCASE_WIDTH 116
AVG_UPPERCASE_WIDTH 110
ENDPROPERTIES
CHARS 331
STARTCHAR NULL.dup1
ENCODING 0
SWIDTH 161 0
DWIDTH 3 0
BBX 1 1 0 0
BITMAP
00
ENDCHAR
STARTCHAR CR
ENCODING 13
SWIDTH 161 0
DWIDTH 3 0
BBX 1 1 0 0
BITMAP
00
ENDCHAR
STARTCHAR space
ENCODING 32
SWIDTH 161 0
DWIDTH 3 0
BBX 1 1 0 0
BITMAP
00
ENDCHAR
STARTCHAR exclam
ENCODING 33
SWIDTH 350 0
DWIDTH 7 0
BBX 6 24 0 1
BITMAP
20
FC
7C
7C
7C
7C
78
78
38
38
38
38
38
38
38
28
00
00
FC
7C
7C
7C
7C
7C
ENDCHAR
STARTCHAR quotedbl
ENCODING 34
SWIDTH 541 0
DWIDTH 11 0
BBX 9 8 1 7
BITMAP
F780
F780
F780
F300
6300
6300
6300
4200
ENDCHAR
STARTCHAR numbersign
ENCODING 35
SWIDTH 583 0
DWIDTH 12 0
BBX 12 18 0 -2
BITMAP
0460
0460
0C40
0CC0
0CD0
3FE0
3FE0
3FE0
1180
1180
3100
3140
FF80
FF80
2200
4200
4600
C400
ENDCHAR
STARTCHAR dollar
ENCODING 36
SWIDTH 534 0
DWIDTH 11 0
BBX 9 25 1 -5
BITMAP
0800
0800
0800
0800
0800
0C00
7F00
7F80
FF80
FF80
FF80
FF80
F780
FC00
FE00
3F00
0700
F700
7F00
7E00
2A00
0800
0800
1800
0800
ENDCHAR
STARTCHAR percent
ENCODING 37
SWIDTH 828 0
DWIDTH 17 0
BBX 15 18 1 -2
BITMAP
0060
00C0
F0C0
F8C0
F8C0
F880
999C
D99E
F13E
F31E
0316
0636
0636
063C
0408
0C00
0C00
0C00
ENDCHAR
STARTCHAR ampersand
ENCODING 38
SWIDTH 522 0
DWIDTH 10 0
BBX 9 10 1 3
BITMAP
1800
1C00
1C00
1C00
FF80
FF80
FF80
1C00
1C00
1C00
ENDCHAR
STARTCHAR quotesingle
ENCODING 39
SWIDTH 300 0
DWIDTH 6 0
BBX 4 8 1 7
BITMAP
F0
F0
F0
F0
70
60
60
40
ENDCHAR
STARTCHAR parenleft
ENCODING 40
SWIDTH 372 0
DWIDTH 7 0
BBX 6 19 1 -2
BITMAP
0C
1C
3C
7C
7C
F8
FC
F0
E0
E0
E0
E0
E0
E0
F0
78
78
38
18
ENDCHAR
STARTCHAR parenright
ENCODING 41
SWIDTH 338 0
DWIDTH 7 0
BBX 6 20 0 -3
BITMAP
40
70
78
7C
7C
7C
7C
3C
1C
1C
1C
1C
18
18
18
38
38
70
E0
40
ENDCHAR
STARTCHAR asterisk
ENCODING 42
SWIDTH 513 0
DWIDTH 10 0
BBX 10 12 0 4
BITMAP
0200
1300
3B00
1E00
1E00
7FC0
FFC0
0E00
1E00
1F00
1B00
2800
ENDCHAR
STARTCHAR plus
ENCODING 43
SWIDTH 458 0
DWIDTH 9 0
BBX 7 9 1 3
BITMAP
20
38
38
FE
FE
FE
38
38
38
ENDCHAR
STARTCHAR comma
ENCODING 44
SWIDTH 361 0
DWIDTH 7 0
BBX 5 10 1 -3
BITMAP
F8
F8
F8
F8
F8
F8
18
18
18
18
ENDCHAR
STARTCHAR hyphen
ENCODING 45
SWIDTH 478 0
DWIDTH 10 0
BBX 8 4 1 6
BITMAP
FB
FE
FE
FE
ENDCHAR
STARTCHAR period
ENCODING 46
SWIDTH 374 0
DWIDTH 7 0
BBX 6 6 1 1
BITMAP
F8
F8
FC
F8
78
78
ENDCHAR
STARTCHAR slash
ENCODING 47
SWIDTH 291 0
DWIDTH 6 0
BBX 6 18 0 -2
BITMAP
0C
0C
08
18
18
18
10
30
30
20
60
60
60
40
40
C0
80
80
ENDCHAR
STARTCHAR zero
ENCODING 48
SWIDTH 528 0
DWIDTH 11 0
BBX 9 16 1 -1
BITMAP
3C00
7E00
FF00
FF80
FF00
FF80
FF00
E780
E700
E700
E700
E700
6700
7E00
7E00
2C00
ENDCHAR
STARTCHAR one
ENCODING 49
SWIDTH 366 0
DWIDTH 7 0
BBX 7 15 0 0
BITMAP
0C
3C
FC
FE
3C
3C
3C
3C
1C
1C
1C
1C
1C
1C
1C
ENDCHAR
STARTCHAR two
ENCODING 50
SWIDTH 575 0
DWIDTH 12 0
BBX 10 17 1 -2
BITMAP
3C00
7E00
FF00
FF80
FF80
FF80
FF80
F780
E700
0F00
0F00
1E00
1FC0
FFC0
FFC0
FDC0
1180
ENDCHAR
STARTCHAR three
ENCODING 51
SWIDTH 517 0
DWIDTH 10 0
BBX 8 16 1 -1
BITMAP
3C
7E
FF
FF
FF
FF
FF
E7
8F
1F
1F
07
73
3F
3E
1E
ENDCHAR
STARTCHAR four
ENCODING 52
SWIDTH 466 0
DWIDTH 9 0
BBX 8 20 1 -5
BITMAP
FF
7C
78
78
78
F0
F0
70
7C
FE
FE
EE
FF
FF
FF
17
04
04
04
04
ENDCHAR
STARTCHAR five
ENCODING 53
SWIDTH 583 0
DWIDTH 12 0
BBX 10 16 1 -1
BITMAP
FF80
FFC0
FFC0
FFC0
FFC0
FF80
FF80
E080
E000
FF00
7F00
0700
7300
3F00
3E00
1E00
ENDCHAR
STARTCHAR six
ENCODING 54
SWIDTH 582 0
DWIDTH 12 0
BBX 10 17 1 -2
BITMAP
3C00
7F00
FF80
FFC0
FFC0
FFC0
FFC0
F780
F380
7180
7F80
7380
7380
7B80
3F80
3F80
1500
ENDCHAR
STARTCHAR seven
ENCODING 55
SWIDTH 624 0
DWIDTH 12 0
BBX 12 17 0 -2
BITMAP
1FF0
FFF0
7FF0
7FE0
7FE0
7FE0
7FC0
61E0
01C0
03C0
0380
0380
0700
0700
0600
0E00
0E00
ENDCHAR
STARTCHAR eight
ENCODING 56
SWIDTH 459 0
DWIDTH 9 0
BBX 7 17 1 -2
BITMAP
7C
FE
FE
FE
FE
FE
EE
EE
6E
7C
7C
6C
6C
6C
7C
28
20
ENDCHAR
STARTCHAR nine
ENCODING 57
SWIDTH 584 0
DWIDTH 12 0
BBX 10 18 1 -3
BITMAP
0E00
3F00
7FC0
FF80
FFC0
FFC0
FFC0
F3C0
FFC0
7FC0
3F80
0380
F700
7F00
7E00
3E00
0800
0800
ENDCHAR
STARTCHAR colon
ENCODING 58
SWIDTH 386 0
DWIDTH 8 0
BBX 6 16 1 1
BITMAP
FC
F8
78
FC
7C
7C
00
00
00
00
F8
F8
FC
F8
78
78
ENDCHAR
STARTCHAR semicolon
ENCODING 59
SWIDTH 375 0
DWIDTH 8 0
BBX 6 20 0 -3
BITMAP
FC
7C
7C
7C
7C
7C
00
00
00
00
7C
7C
7C
7C
7C
7C
0C
0C
0C
0C
ENDCHAR
STARTCHAR less
ENCODING 60
SWIDTH 459 0
DWIDTH 9 0
BBX 8 11 1 1
BITMAP
3F
3C
7C
F8
F0
F0
F8
78
3C
1E
03
ENDCHAR
STARTCHAR equal
ENCODING 61
SWIDTH 485 0
DWIDTH 10 0
BBX 7 6 1 6
BITMAP
FE
FE
00
00
FE
FE
ENDCHAR
STARTCHAR greater
ENCODING 62
SWIDTH 432 0
DWIDTH 9 0
BBX 8 11 0 2
BITMAP
88
7C
3C
3C
1E
0F
1F
1F
1C
3C
78
ENDCHAR
STARTCHAR question
ENCODING 63
SWIDTH 577 0
DWIDTH 12 0
BBX 9 18 1 -2
BITMAP
1800
7E00
FF00
FF80
FF80
FF80
F780
7780
0700
0F00
0E00
0E00
0C00
0000
3C00
1C00
1C00
1C00
ENDCHAR
STARTCHAR at
ENCODING 64
SWIDTH 930 0
DWIDTH 19 0
BBX 17 21 1 -4
BITMAP
07E000
0FF000
1C3800
308C00
67E600
6FF700
4FF700
CFF380
CFE380
C76380
C66380
C9E380
C7E380
C67380
C7FB00
E7FF00
654C00
700000
380000
1FE000
0FF000
ENDCHAR
STARTCHAR A
ENCODING 65
SWIDTH 494 0
DWIDTH 10 0
BBX 9 18 0 -4
BITMAP
FF80
3F00
3F00
3F00
3F00
3E00
3E00
3E00
3600
3600
3E00
3E00
3E00
3600
3600
3600
3200
0400
ENDCHAR
STARTCHAR B
ENCODING 66
SWIDTH 517 0
DWIDTH 10 0
BBX 10 16 0 -1
BITMAP
9F00
7F80
3FC0
3FC0
3F80
3F80
3B80
3B80
3980
3F00
3F00
3B00
1B00
1B00
1F00
1B00
ENDCHAR
STARTCHAR C
ENCODING 67
SWIDTH 504 0
DWIDTH 10 0
BBX 9 17 1 -2
BITMAP
3C00
7F00
FF00
FF80
FF80
FF80
FF80
F700
F700
F000
E000
6700
7700
7E00
7E00
2C00
1800
ENDCHAR
STARTCHAR D
ENCODING 68
SWIDTH 522 0
DWIDTH 10 0
BBX 10 18 0 -3
BITMAP
0700
FF80
7FC0
7FC0
3FC0
3FC0
3FC0
39C0
3980
3980
3980
1980
1F80
1F80
1700
1600
1600
0400
ENDCHAR
STARTCHAR E
ENCODING 69
SWIDTH 570 0
DWIDTH 11 0
BBX 11 16 0 -1
BITMAP
BF00
7FE0
3FC0
3FC0
3F80
3F80
3F80
3800
3E00
3F00
3F00
1800
1E00
1F00
1700
1500
ENDCHAR
STARTCHAR F
ENCODING 70
SWIDTH 559 0
DWIDTH 11 0
BBX 11 17 0 -2
BITMAP
3F00
FFE0
3FC0
3F80
3F80
3F80
3F80
1C80
1F80
1F80
1F80
1C00
1C00
1C00
1C00
2A00
0800
ENDCHAR
STARTCHAR G
ENCODING 71
SWIDTH 499 0
DWIDTH 10 0
BBX 9 17 1 -2
BITMAP
1800
FE00
FF00
FF00
FF80
FF00
FF00
E700
E700
E800
EF00
6F00
7700
7F00
7F00
3E00
2C00
ENDCHAR
STARTCHAR H
ENCODING 72
SWIDTH 726 0
DWIDTH 15 0
BBX 14 19 0 -4
BITMAP
0EE8
FCFC
3C78
3CF8
3CF0
3CF0
3CF0
1CF0
1FF0
1FE0
1FE0
1CE0
1CE0
1CE0
1DC0
10C0
0040
0100
0100
ENDCHAR
STARTCHAR I
ENCODING 73
SWIDTH 401 0
DWIDTH 8 0
BBX 8 16 0 -1
BITMAP
FF
7E
3E
3E
3C
3C
3C
3C
3C
3C
1C
1C
1C
1C
1C
18
ENDCHAR
STARTCHAR J
ENCODING 74
SWIDTH 455 0
DWIDTH 9 0
BBX 9 16 0 -1
BITMAP
1E80
1F00
0F00
0F00
0E00
0E00
0E00
0E00
0E00
0E00
CC00
CC00
DC00
FC00
7800
3800
ENDCHAR
STARTCHAR K
ENCODING 75
SWIDTH 580 0
DWIDTH 12 0
BBX 11 16 0 -1
BITMAP
F980
79E0
3DC0
3F80
3F00
1F00
1F00
1F00
1F00
1F00
1F00
1F00
1B80
0980
0D80
0D80
ENDCHAR
STARTCHAR L
ENCODING 76
SWIDTH 416 0
DWIDTH 8 0
BBX 9 17 0 -2
BITMAP
FE00
7C00
7800
3C00
3800
3800
3800
3800
3800
3800
3800
3800
3F80
1F80
1F00
1500
0100
ENDCHAR
STARTCHAR M
ENCODING 77
SWIDTH 740 0
DWIDTH 15 0
BBX 14 16 0 -1
BITMAP
BEF0
7EFC
3EF8
3EF8
3FF8
3FF0
3FF0
3FF0
3FF0
1FF0
1FF0
1FF0
1D70
1D70
1550
1020
ENDCHAR
STARTCHAR N
ENCODING 78
SWIDTH 610 0
DWIDTH 12 0
BBX 12 18 0 -3
BITMAP
1D80
FDF0
3DC0
3DC0
3FC0
3FC0
3FC0
3FC0
3FC0
3FC0
1B80
1B80
1B80
1B80
1980
1980
1580
1500
ENDCHAR
STARTCHAR O
ENCODING 79
SWIDTH 504 0
DWIDTH 10 0
BBX 9 17 1 -2
BITMAP
1800
7E00
FF80
FF00
FF80
FF00
FF80
E780
E780
E700
E700
6700
7700
7E00
7E00
1600
0800
ENDCHAR
STARTCHAR P
ENCODING 80
SWIDTH 545 0
DWIDTH 11 0
BBX 10 16 0 -1
BITMAP
BD80
7FC0
3FC0
3FC0
3FC0
3FC0
3DC0
1CC0
1CC0
1CC0
1F80
1F80
1C00
1C00
0C00
0C00
ENDCHAR
STARTCHAR Q
ENCODING 81
SWIDTH 520 0
DWIDTH 10 0
BBX 10 18 0 -3
BITMAP
0E00
3F00
7F80
7FC0
FFC0
FFC0
7BC0
7BC0
79C0
79C0
79C0
3BC0
3F80
1F80
0FC0
07C0
0080
0080
ENDCHAR
STARTCHAR R
ENCODING 82
SWIDTH 599 0
DWIDTH 12 0
BBX 12 16 0 -1
BITMAP
0F80
FFC0
3FE0
3FF0
1FF0
1FE0
1DE0
1CE0
1CE0
1FE0
1FE0
0FC0
1DC0
0DC0
0CC0
0EE0
ENDCHAR
STARTCHAR S
ENCODING 83
SWIDTH 504 0
DWIDTH 10 0
BBX 10 17 0 -2
BITMAP
0E00
3F80
7FC0
7FC0
7FC0
7F80
FF80
7380
7C40
7F00
1F80
0380
7B80
7F00
3F00
1500
0400
ENDCHAR
STARTCHAR T
ENCODING 84
SWIDTH 622 0
DWIDTH 12 0
BBX 11 17 1 -2
BITMAP
3F00
FFE0
7FC0
7FC0
7FC0
7FC0
7FC0
4E40
0E00
0E00
0E00
0E00
0E00
0E00
0E00
0E00
0E00
ENDCHAR
STARTCHAR U
ENCODING 85
SWIDTH 637 0
DWIDTH 13 0
BBX 13 16 0 -1
BITMAP
BDC0
7DF8
3DE0
3DE0
3DE0
3DE0
3DC0
3DC0
39C0
3DC0
3DC0
1DC0
1FC0
1F80
0F00
0B00
ENDCHAR
STARTCHAR V
ENCODING 86
SWIDTH 570 0
DWIDTH 11 0
BBX 12 17 0 -2
BITMAP
F9F0
79E0
39C0
3BC0
3B80
3B80
3B80
3B80
3B00
1F00
1F00
1F00
1F00
1E00
1E00
0E00
0200
ENDCHAR
STARTCHAR W
ENCODING 87
SWIDTH 777 0
DWIDTH 16 0
BBX 16 15 0 0
BITMAP
0998
FD9F
7FBC
3FB8
1FF8
1FF0
1FF0
0FF0
0FF0
07E0
07E0
07E0
06E0
06C0
02C0
ENDCHAR
STARTCHAR X
ENCODING 88
SWIDTH 587 0
DWIDTH 12 0
BBX 12 16 0 -1
BITMAP
1900
FDF0
3FC0
1F80
1F80
0F00
0F00
0F00
0F00
0700
0F00
0F00
0F00
0F00
0F00
1A80
ENDCHAR
STARTCHAR Y
ENCODING 89
SWIDTH 688 0
DWIDTH 14 0
BBX 14 16 0 -1
BITMAP
BC40
7CFC
1EF0
0EE0
07E0
07C0
03C0
03C0
03C0
01C0
01C0
01C0
01C0
01C0
0180
0140
ENDCHAR
STARTCHAR Z
ENCODING 90
SWIDTH 695 0
DWIDTH 14 0
BBX 13 16 1 -1
BITMAP
3F80
FFF8
FFF0
7FE0
7FE0
7FC0
3FC0
2780
0F00
0E00
0E00
1C00
1F00
3F80
3F00
0200
ENDCHAR
STARTCHAR bracketleft
ENCODING 91
SWIDTH 410 0
DWIDTH 8 0
BBX 7 18 1 -1
BITMAP
FE
FE
FE
FE
E0
E0
E0
E0
E0
E0
E0
E0
E0
E0
E0
7E
7C
48
ENDCHAR
STARTCHAR backslash
ENCODING 92
SWIDTH 292 0
DWIDTH 6 0
BBX 6 18 0 -2
BITMAP
80
C0
C0
60
60
60
20
30
30
30
10
18
18
08
08
0C
0C
0C
ENDCHAR
STARTCHAR bracketright
ENCODING 93
SWIDTH 407 0
DWIDTH 8 0
BBX 7 18 0 -1
BITMAP
7E
7E
7E
FE
0E
0E
0E
0E
0E
0E
0E
0E
0E
0E
0E
FE
FE
02
ENDCHAR
STARTCHAR asciicircum
ENCODING 94
SWIDTH 523 0
DWIDTH 10 0
BBX 9 7 1 14
BITMAP
3C00
3E00
7E00
7700
E700
E380
4100
ENDCHAR
STARTCHAR underscore
ENCODING 95
SWIDTH 452 0
DWIDTH 9 0
BBX 7 4 1 -1
BITMAP
E2
FE
FE
12
ENDCHAR
STARTCHAR grave
ENCODING 96
SWIDTH 444 0
DWIDTH 9 0
BBX 7 5 1 15
BITMAP
20
70
F8
3E
04
ENDCHAR
STARTCHAR a
ENCODING 97
SWIDTH 479 0
DWIDTH 10 0
BBX 10 17 0 -2
BITMAP
FFC0
7F80
3F00
3F00
3F00
3F00
3F00
3F00
3F00
3F00
3F00
3300
3F00
3F00
3F00
3300
3500
ENDCHAR
STARTCHAR b
ENCODING 98
SWIDTH 610 0
DWIDTH 12 0
BBX 12 16 0 -1
BITMAP
07C0
FFE0
7FE0
3FF0
3FF0
1FF0
1FE0
1CE0
1CE0
1FE0
1F80
1FC0
1CE0
0CC0
0FC0
0FC0
ENDCHAR
STARTCHAR c
ENCODING 99
SWIDTH 534 0
DWIDTH 11 0
BBX 9 16 1 -1
BITMAP
1E00
7F00
FF80
FF80
FF80
FF80
FF80
F780
F380
F000
7000
7300
7700
7700
3E00
1C00
ENDCHAR
STARTCHAR d
ENCODING 100
SWIDTH 573 0
DWIDTH 11 0
BBX 11 17 0 -2
BITMAP
0E00
FFC0
7FC0
3FE0
3FE0
3FE0
3FE0
1DE0
1CE0
1CC0
1CC0
1CC0
1DC0
0D80
0F80
0F80
0B00
ENDCHAR
STARTCHAR e
ENCODING 101
SWIDTH 632 0
DWIDTH 13 0
BBX 12 17 0 -2
BITMAP
1FC0
FFF0
7FE0
3FE0
3FC0
3FC0
3FC0
3C40
1C00
1F80
1F80
1F80
1C00
1F80
0F80
0A80
0040
ENDCHAR
STARTCHAR f
ENCODING 102
SWIDTH 559 0
DWIDTH 11 0
BBX 11 17 0 -2
BITMAP
BF00
7FE0
3FC0
3F80
3F80
3F80
3F80
1C80
1F00
1F00
1F80
1C00
1C00
1C00
1C00
1C00
2C00
ENDCHAR
STARTCHAR g
ENCODING 103
SWIDTH 546 0
DWIDTH 11 0
BBX 10 17 1 -2
BITMAP
3C00
7F00
FF80
FF80
FFC0
FFC0
FF80
F780
F780
F080
7700
7780
7780
7B80
3F80
3F00
1600
ENDCHAR
STARTCHAR h
ENCODING 104
SWIDTH 730 0
DWIDTH 15 0
BBX 14 16 0 -1
BITMAP
0EF8
FCFC
3C78
3CF8
3CF0
3CF0
3CF0
1CF0
1FE0
1FE0
1EE0
1CE0
1CE0
1CE0
1DE0
10E0
ENDCHAR
STARTCHAR i
ENCODING 105
SWIDTH 412 0
DWIDTH 8 0
BBX 8 16 0 -1
BITMAP
FF
7E
3E
3E
3C
3C
3C
3C
3C
1C
1C
1C
1C
1C
1C
04
ENDCHAR
STARTCHAR j
ENCODING 106
SWIDTH 458 0
DWIDTH 9 0
BBX 10 16 -1 -1
BITMAP
1E00
0FC0
0F80
0F80
0700
0700
0700
0700
0700
0700
E700
7700
7700
7F00
3E00
0500
ENDCHAR
STARTCHAR k
ENCODING 107
SWIDTH 636 0
DWIDTH 13 0
BBX 13 16 0 -1
BITMAP
1CF8
FDE0
3DC0
3D80
1D80
1D80
1D80
1F00
1F00
1F00
0F80
0F80
0D80
0DC0
0CC0
0C80
ENDCHAR
STARTCHAR l
ENCODING 108
SWIDTH 438 0
DWIDTH 9 0
BBX 9 16 0 -1
BITMAP
3F00
FE00
3C00
3C00
3C00
3C00
3C00
1C00
1C00
1C00
1C00
1C00
1F80
1F80
1F80
1100
ENDCHAR
STARTCHAR m
ENCODING 109
SWIDTH 770 0
DWIDTH 15 0
BBX 15 16 0 -1
BITMAP
06F8
FEFE
7EF8
3EF8
3EF8
3FF0
3FF0
3FF0
3FF0
3FF0
1F70
1F60
1F60
1FE0
16E0
1020
ENDCHAR
STARTCHAR n
ENCODING 110
SWIDTH 664 0
DWIDTH 13 0
BBX 13 17 0 -2
BITMAP
FCF8
7CF0
7EF0
3EE0
3EE0
3FE0
3FE0
3FE0
3FE0
3FE0
3BC0
1BC0
1BC0
1BC0
1980
1980
0180
ENDCHAR
STARTCHAR o
ENCODING 111
SWIDTH 545 0
DWIDTH 11 0
BBX 10 17 1 -2
BITMAP
1E00
7F00
FF80
FFC0
FF80
FFC0
FFC0
F780
E780
E780
F780
7700
7700
7F00
3E00
1600
0200
ENDCHAR
STARTCHAR p
ENCODING 112
SWIDTH 557 0
DWIDTH 11 0
BBX 11 16 0 -1
BITMAP
BF80
7FC0
3FC0
3FE0
3FC0
3FC0
3DC0
3CC0
1CC0
1DC0
1F80
1F80
1C00
1C00
1C00
1C00
ENDCHAR
STARTCHAR q
ENCODING 113
SWIDTH 562 0
DWIDTH 11 0
BBX 11 18 0 -3
BITMAP
0F00
3FC0
7FC0
7FE0
FFE0
FFE0
79E0
79E0
79E0
78E0
79C0
3DC0
3FC0
1FC0
0FE0
07C0
0040
0040
ENDCHAR
STARTCHAR r
ENCODING 114
SWIDTH 616 0
DWIDTH 12 0
BBX 12 17 0 -2
BITMAP
1F00
FFE0
3FF0
3FF0
1FF0
1FF0
1EE0
1CE0
1CE0
1FE0
1FC0
1FC0
1DC0
1DC0
1DC0
1DC0
0040
ENDCHAR
STARTCHAR s
ENCODING 115
SWIDTH 481 0
DWIDTH 10 0
BBX 8 16 1 -1
BITMAP
1C
7E
FF
FF
FF
FF
FF
E7
F1
FC
7E
0E
E6
7E
7C
3C
ENDCHAR
STARTCHAR t
ENCODING 116
SWIDTH 683 0
DWIDTH 14 0
BBX 13 18 0 -3
BITMAP
1FE0
FFF8
7FF0
3FF0
3FF0
3FF0
3FF0
3790
0380
0380
0380
0380
0380
0380
0380
0380
0380
0080
ENDCHAR
STARTCHAR u
ENCODING 117
SWIDTH 708 0
DWIDTH 14 0
BBX 14 15 0 0
BITMAP
9E00
7CFC
3CF8
3CF8
3EF0
3EF0
1EF0
1EF0
1CF0
1CF0
1EE0
1EE0
0FE0
0FE0
06C0
ENDCHAR
STARTCHAR v
ENCODING 118
SWIDTH 644 0
DWIDTH 13 0
BBX 13 16 0 -1
BITMAP
BCE8
7CF0
3DE0
3DE0
1DC0
1DC0
1DC0
1DC0
1DC0
0D80
0F80
0F80
0F80
0780
0300
0300
ENDCHAR
STARTCHAR w
ENCODING 119
SWIDTH 704 0
DWIDTH 14 0
BBX 14 15 0 0
BITMAP
1B60
FB3C
3BB8
3BF0
1BF0
1FF0
1FE0
0FE0
0FE0
0FE0
0FE0
06E0
06C0
06C0
02C0
ENDCHAR
STARTCHAR x
ENCODING 120
SWIDTH 599 0
DWIDTH 12 0
BBX 12 16 0 -1
BITMAP
1980
FDF0
1DC0
1F80
0F80
0F00
0F00
0F00
0F00
0700
0F00
0F00
0F00
0F00
0F80
1C80
ENDCHAR
STARTCHAR y
ENCODING 121
SWIDTH 604 0
DWIDTH 12 0
BBX 12 16 0 -1
BITMAP
B900
79F0
1DC0
1FC0
0F80
0F00
0F00
0700
0700
0700
0700
0700
0700
0700
0700
0700
ENDCHAR
STARTCHAR z
ENCODING 122
SWIDTH 622 0
DWIDTH 12 0
BBX 11 16 1 -1
BITMAP
7F80
FFE0
FFC0
7FC0
7F80
3F80
3F80
2700
0E00
0E00
0C00
0C00
1B00
1F00
1F00
1900
ENDCHAR
STARTCHAR braceleft
ENCODING 123
SWIDTH 372 0
DWIDTH 7 0
BBX 6 19 1 -2
BITMAP
0C
1C
3C
7C
7C
F8
FC
F0
E0
E0
E0
E0
E0
E0
F0
78
78
38
18
ENDCHAR
STARTCHAR bar
ENCODING 124
SWIDTH 208 0
DWIDTH 4 0
BBX 2 18 1 -2
BITMAP
C0
C0
C0
C0
C0
C0
C0
C0
C0
C0
C0
C0
C0
C0
C0
C0
C0
C0
ENDCHAR
STARTCHAR braceright
ENCODING 125
SWIDTH 338 0
DWIDTH 7 0
BBX 6 20 0 -3
BITMAP
40
70
78
7C
7C
7C
7C
3C
1C
1C
1C
1C
18
18
18
38
38
70
E0
40
ENDCHAR
STARTCHAR asciitilde
ENCODING 126
SWIDTH 535 0
DWIDTH 11 0
BBX 9 5 1 11
BITMAP
0200
EF00
FF80
7F00
3200
ENDCHAR
STARTCHAR exclamdown
ENCODING 161
SWIDTH 347 0
DWIDTH 7 0
BBX 7 24 0 1
BITMAP
64
7C
7C
7C
7C
FC
08
00
08
38
38
38
38
38
38
38
38
78
7C
7C
3C
7C
7E
FC
ENDCHAR
STARTCHAR cent
ENCODING 162
SWIDTH 552 0
DWIDTH 11 0
BBX 9 29 1 -8
BITMAP
0800
0800
0800
0800
0800
0800
1E00
7F00
FF80
FF80
FF80
FF80
FF80
F780
F380
F000
7000
7300
7700
7F00
3E00
1C00
0800
0800
0800
0800
0800
0800
0400
ENDCHAR
STARTCHAR sterling
ENCODING 163
SWIDTH 589 0
DWIDTH 12 0
BBX 10 17 1 -2
BITMAP
1C00
7F00
FF80
FFC0
FFC0
FFC0
FFC0
F780
F380
F080
F800
7000
7F80
7F00
7F00
5B00
0200
ENDCHAR
STARTCHAR yen
ENCODING 165
SWIDTH 692 0
DWIDTH 14 0
BBX 15 16 -1 1
BITMAP
FC7E
1E7C
0EF8
07F0
07E0
03E0
3FFC
3FEC
01C0
3FFC
0FFC
01C0
01C0
01C0
00C0
0080
ENDCHAR
STARTCHAR brokenbar
ENCODING 166
SWIDTH 201 0
DWIDTH 4 0
BBX 2 18 1 -2
BITMAP
C0
C0
C0
C0
C0
C0
C0
00
00
00
00
C0
C0
C0
C0
C0
C0
C0
ENDCHAR
STARTCHAR section
ENCODING 167
SWIDTH 477 0
DWIDTH 10 0
BBX 9 19 0 -4
BITMAP
0E00
3F80
3F80
3F80
3F80
3F00
3B00
3C00
3F00
7F00
F300
7700
7E00
7E00
1E00
3600
7600
3C00
2400
ENDCHAR
STARTCHAR dieresis
ENCODING 168
SWIDTH 633 0
DWIDTH 13 0
BBX 10 5 1 16
BITMAP
F3C0
F3C0
F3C0
F3C0
F3C0
ENDCHAR
STARTCHAR copyright
ENCODING 169
SWIDTH 783 0
DWIDTH 16 0
BBX 14 16 1 -1
BITMAP
0FC0
3020
6790
4FC8
CFC8
8FC4
9FC4
8DC4
8CC4
8C04
8C8C
CCC8
4F88
6790
3170
1FC0
ENDCHAR
STARTCHAR guillemotleft
ENCODING 171
SWIDTH 759 0
DWIDTH 15 0
BBX 14 11 1 1
BITMAP
1E78
3CF0
79F0
F9E0
F3C0
E3C0
F1E0
79E0
3CF0
1C78
0E3C
ENDCHAR
STARTCHAR uni00AD
ENCODING 173
SWIDTH 446 0
DWIDTH 9 0
BBX 7 2 1 6
BITMAP
FE
FE
ENDCHAR
STARTCHAR registered
ENCODING 174
SWIDTH 780 0
DWIDTH 16 0
BBX 14 16 1 -1
BITMAP
1FC0
3020
7F90
5FC8
CFC8
8FC4
8DC4
8CCC
8FC4
8784
8784
46C8
66C8
32D0
1C60
0FC0
ENDCHAR
STARTCHAR macron
ENCODING 175
SWIDTH 446 0
DWIDTH 9 0
BBX 7 2 1 6
BITMAP
FE
FE
ENDCHAR
STARTCHAR acute
ENCODING 180
SWIDTH 439 0
DWIDTH 9 0
BBX 7 5 1 15
BITMAP
08
18
7E
F8
80
ENDCHAR
STARTCHAR mu
ENCODING 181
SWIDTH 679 0
DWIDTH 14 0
BBX 14 15 0 0
BITMAP
9C00
7CFC
7CF8
7CF8
3CF0
3CF0
3CE0
3CE0
3CE0
3CE0
1CE0
1DE0
1FE0
1FC0
0DC0
ENDCHAR
STARTCHAR paragraph
ENCODING 182
SWIDTH 591 0
DWIDTH 12 0
BBX 11 16 1 -1
BITMAP
2F80
FFE0
FF80
FD80
FD80
FD80
FD80
FD80
7D80
3580
0500
0500
0500
0500
0500
0500
ENDCHAR
STARTCHAR periodcentered
ENCODING 183
SWIDTH 388 0
DWIDTH 8 0
BBX 6 7 1 4
BITMAP
38
F8
F8
7C
7C
78
80
ENDCHAR
STARTCHAR cedilla
ENCODING 184
SWIDTH 270 0
DWIDTH 5 0
BBX 4 7 1 -7
BITMAP
40
C0
C0
F0
20
E0
E0
ENDCHAR
STARTCHAR guillemotright
ENCODING 187
SWIDTH 767 0
DWIDTH 15 0
BBX 15 12 0 1
BITMAP
8800
7DE0
3CF0
3C78
1E3C
0F3C
1E1E
1F3C
3C7C
7C78
78F0
01F0
ENDCHAR
STARTCHAR Agrave
ENCODING 192
SWIDTH 494 0
DWIDTH 10 0
BBX 10 25 -1 -4
BITMAP
2000
7000
F800
3E00
0200
0000
0000
7FC0
1F80
1F80
1F80
1F80
1F00
1F00
1F00
1B00
1B00
1F00
1F00
1F00
1B00
1B00
1B00
1900
0200
ENDCHAR
STARTCHAR Aacute
ENCODING 193
SWIDTH 494 0
DWIDTH 10 0
BBX 12 25 0 -4
BITMAP
0040
00C0
01F0
07C0
0400
0000
0000
FF80
3F00
3F00
3F00
3F00
3E00
3E00
3E00
3600
3600
3E00
3E00
3E00
3600
3600
3600
3200
0400
ENDCHAR
STARTCHAR Acircumflex
ENCODING 194
SWIDTH 494 0
DWIDTH 10 0
BBX 9 27 0 -4
BITMAP
1E00
3E00
3F00
3700
7380
6180
C080
0000
0000
FF80
3F00
3F00
3F00
3F00
3E00
3E00
3E00
3600
3600
3E00
3E00
3E00
3600
3600
3600
3200
0400
ENDCHAR
STARTCHAR Atilde
ENCODING 195
SWIDTH 494 0
DWIDTH 10 0
BBX 10 25 0 -4
BITMAP
2300
E780
7FC0
3F80
1000
0000
0000
FF80
3F00
3F00
3F00
3F00
3E00
3E00
3E00
3600
3600
3E00
3E00
3E00
3600
3600
3600
3200
0400
ENDCHAR
STARTCHAR Adieresis
ENCODING 196
SWIDTH 494 0
DWIDTH 10 0
BBX 10 25 0 -4
BITMAP
D3C0
F3C0
F3C0
F3C0
F3C0
0000
0000
FF80
3F00
3F00
3F00
3F00
3E00
3E00
3E00
3600
3600
3E00
3E00
3E00
3600
3600
3600
3200
0400
ENDCHAR
STARTCHAR Aring
ENCODING 197
SWIDTH 494 0
DWIDTH 10 0
BBX 9 25 0 -4
BITMAP
1E00
3300
1300
1A00
1E00
0000
0000
FF80
3F00
3F00
3F00
3F00
3E00
3E00
3E00
3600
3600
3E00
3E00
3E00
3600
3600
3600
3200
0400
ENDCHAR
STARTCHAR AE
ENCODING 198
SWIDTH 733 0
DWIDTH 15 0
BBX 14 19 0 -4
BITMAP
0FF0
FFFC
3FF8
3FF8
3FF8
3FF0
3FF0
3F80
3FE0
37E0
37E0
3F00
3F70
3FE0
36E0
36A0
36A0
32A0
0400
ENDCHAR
STARTCHAR Ccedilla
ENCODING 199
SWIDTH 504 0
DWIDTH 10 0
BBX 9 24 1 -9
BITMAP
3C00
7F00
FF00
FF80
FF80
FF80
FF80
F700
F700
F000
E000
6700
7700
7E00
7E00
2C00
1800
0600
0600
0400
0700
0100
0700
0700
ENDCHAR
STARTCHAR Egrave
ENCODING 200
SWIDTH 570 0
DWIDTH 11 0
BBX 11 22 0 -1
BITMAP
2000
7000
F800
3E00
0400
0000
BF00
7FE0
3FC0
3FC0
3F80
3F80
3F80
3800
3E00
3F00
3F00
1800
1E00
1F00
1700
1500
ENDCHAR
STARTCHAR Eacute
ENCODING 201
SWIDTH 570 0
DWIDTH 11 0
BBX 13 22 0 -1
BITMAP
0020
0060
01F8
03E0
0200
0000
BF00
7FE0
3FC0
3FC0
3F80
3F80
3F80
3800
3E00
3F00
3F00
1800
1E00
1F00
1700
1500
ENDCHAR
STARTCHAR Ecircumflex
ENCODING 202
SWIDTH 570 0
DWIDTH 11 0
BBX 11 24 0 -1
BITMAP
0E00
1F00
1F80
3B80
31C0
60C0
2080
0000
BF00
7FE0
3FC0
3FC0
3F80
3F80
3F80
3800
3E00
3F00
3F00
1800
1E00
1F00
1700
1500
ENDCHAR
STARTCHAR Edieresis
ENCODING 203
SWIDTH 570 0
DWIDTH 11 0
BBX 11 22 0 -1
BITMAP
6BE0
79E0
79E0
79E0
79E0
0000
BF00
7FE0
3FC0
3FC0
3F80
3F80
3F80
3800
3E00
3F00
3F00
1800
1E00
1F00
1700
1500
ENDCHAR
STARTCHAR Igrave
ENCODING 204
SWIDTH 401 0
DWIDTH 8 0
BBX 10 22 -2 -1
BITMAP
2000
7000
F800
3E00
0200
0000
3FC0
1F80
0F80
0F80
0F00
0F00
0F00
0F00
0F00
0F00
0700
0700
0700
0700
0700
0600
ENDCHAR
STARTCHAR Iacute
ENCODING 205
SWIDTH 401 0
DWIDTH 8 0
BBX 11 22 0 -1
BITMAP
0080
0180
03E0
0F80
0800
0000
FF00
7E00
3E00
3E00
3C00
3C00
3C00
3C00
3C00
3C00
1C00
1C00
1C00
1C00
1C00
1800
ENDCHAR
STARTCHAR Icircumflex
ENCODING 206
SWIDTH 401 0
DWIDTH 8 0
BBX 9 24 -1 -1
BITMAP
1E00
3E00
3F00
7700
7380
6180
C080
0000
7F80
3F00
1F00
1F00
1E00
1E00
1E00
1E00
1E00
1E00
0E00
0E00
0E00
0E00
0E00
0C00
ENDCHAR
STARTCHAR Idieresis
ENCODING 207
SWIDTH 401 0
DWIDTH 8 0
BBX 10 22 -1 -1
BITMAP
D3C0
F3C0
F3C0
F3C0
F3C0
0000
7F80
3F00
1F00
1F00
1E00
1E00
1E00
1E00
1E00
1E00
0E00
0E00
0E00
0E00
0E00
0C00
ENDCHAR
STARTCHAR Eth
ENCODING 208
SWIDTH 530 0
DWIDTH 11 0
BBX 10 18 1 -3
BITMAP
0F00
FF80
7FC0
7FC0
3FC0
3FC0
3FC0
39C0
3980
FD80
3980
3980
1B80
1F00
1700
2600
2400
0400
ENDCHAR
STARTCHAR Ntilde
ENCODING 209
SWIDTH 610 0
DWIDTH 12 0
BBX 12 24 0 -3
BITMAP
1180
73C0
3FE0
3FC0
0800
0000
1D80
FDF0
3DC0
3DC0
3FC0
3FC0
3FC0
3FC0
3FC0
3FC0
1B80
1B80
1B80
1B80
1980
1980
1580
1500
ENDCHAR
STARTCHAR Ograve
ENCODING 210
SWIDTH 504 0
DWIDTH 10 0
BBX 11 23 -1 -2
BITMAP
2000
7000
F800
3E00
0400
0000
0600
1F80
3FE0
3FC0
3FE0
3FC0
3FE0
39E0
39E0
39C0
39C0
19C0
1DC0
1F80
1F80
0580
0200
ENDCHAR
STARTCHAR Oacute
ENCODING 211
SWIDTH 504 0
DWIDTH 10 0
BBX 11 23 1 -2
BITMAP
0080
0180
07E0
0F80
0800
0000
1800
7E00
FF80
FF00
FF80
FF00
FF80
E780
E780
E700
E700
6700
7700
7E00
7E00
1600
0800
ENDCHAR
STARTCHAR Ocircumflex
ENCODING 212
SWIDTH 504 0
DWIDTH 10 0
BBX 10 25 0 -2
BITMAP
1E00
3E00
3F00
7700
7380
E180
4080
0000
0C00
3F00
7FC0
7F80
7FC0
7F80
7FC0
73C0
73C0
7380
7380
3380
3B80
3F00
3F00
0B00
0400
ENDCHAR
STARTCHAR Otilde
ENCODING 213
SWIDTH 504 0
DWIDTH 10 0
BBX 10 23 0 -2
BITMAP
4600
EF00
FF80
7B00
1000
0000
0C00
3F00
7FC0
7F80
7FC0
7F80
7FC0
73C0
73C0
7380
7380
3380
3B80
3F00
3F00
0B00
0400
ENDCHAR
STARTCHAR Odieresis
ENCODING 214
SWIDTH 504 0
DWIDTH 10 0
BBX 10 23 0 -2
BITMAP
D3C0
F3C0
F3C0
F3C0
F3C0
0000
0C00
3F00
7FC0
7F80
7FC0
7F80
7FC0
73C0
73C0
7380
7380
3380
3B80
3F00
3F00
0B00
0400
ENDCHAR
STARTCHAR multiply
ENCODING 215
SWIDTH 359 0
DWIDTH 7 0
BBX 7 7 0 4
BITMAP
2C
FE
7C
3C
7C
FE
64
ENDCHAR
STARTCHAR Oslash
ENCODING 216
SWIDTH 658 0
DWIDTH 13 0
BBX 13 17 0 -2
BITMAP
0E00
1F88
3FC8
7FD0
7FE0
7FC0
7FC0
39C0
3BC0
3DC0
39C0
3BC0
3BC0
7F80
9F80
8B80
0200
ENDCHAR
STARTCHAR Ugrave
ENCODING 217
SWIDTH 637 0
DWIDTH 13 0
BBX 13 22 0 -1
BITMAP
3000
3800
7C00
1E00
0200
0000
BDC0
7DF8
3DE0
3DE0
3DE0
3DE0
3DC0
3DC0
39C0
3DC0
3DC0
1DC0
1FC0
1F80
0F00
0B00
ENDCHAR
STARTCHAR Uacute
ENCODING 218
SWIDTH 637 0
DWIDTH 13 0
BBX 13 22 0 -1
BITMAP
0030
0070
00F8
01E0
0100
0000
BDC0
7DF8
3DE0
3DE0
3DE0
3DE0
3DC0
3DC0
39C0
3DC0
3DC0
1DC0
1FC0
1F80
0F00
0B00
ENDCHAR
STARTCHAR Ucircumflex
ENCODING 219
SWIDTH 637 0
DWIDTH 13 0
BBX 13 24 0 -1
BITMAP
0F00
0F80
1F80
1DC0
19C0
30E0
2040
0000
BDC0
7DF8
3DE0
3DE0
3DE0
3DE0
3DC0
3DC0
39C0
3DC0
3DC0
1DC0
1FC0
1F80
0F00
0B00
ENDCHAR
STARTCHAR Udieresis
ENCODING 220
SWIDTH 637 0
DWIDTH 13 0
BBX 13 22 0 -1
BITMAP
38E0
3DE0
3DE0
3DE0
3DE0
0000
BDC0
7DF8
3DE0
3DE0
3DE0
3DE0
3DC0
3DC0
39C0
3DC0
3DC0
1DC0
1FC0
1F80
0F00
0B00
ENDCHAR
STARTCHAR Yacute
ENCODING 221
SWIDTH 688 0
DWIDTH 14 0
BBX 14 22 0 -1
BITMAP
0010
0038
007C
01F0
0080
0000
BC40
7CFC
1EF0
0EE0
07E0
07C0
03C0
03C0
03C0
01C0
01C0
01C0
01C0
01C0
0180
0140
ENDCHAR
STARTCHAR Thorn
ENCODING 222
SWIDTH 521 0
DWIDTH 10 0
BBX 10 21 0 -3
BITMAP
FC00
FC00
7800
7F00
7F80
7FC0
7FC0
7FC0
7FC0
79C0
39C0
3980
3980
3F80
3F00
3800
3800
3800
1800
1400
1800
ENDCHAR
STARTCHAR germandbls
ENCODING 223
SWIDTH 546 0
DWIDTH 11 0
BBX 9 16 1 -1
BITMAP
0E00
7F80
FF80
FF80
FF80
FF80
FF80
F380
F700
FF00
FE00
7F00
7700
7700
7F00
5E00
ENDCHAR
STARTCHAR agrave
ENCODING 224
SWIDTH 479 0
DWIDTH 10 0
BBX 11 23 -1 -2
BITMAP
2000
3000
FC00
3E00
0200
0000
7FE0
3FC0
1F80
1F80
1F80
1F80
1F80
1F80
1F80
1F80
1F80
1980
1F80
1F80
1F80
1980
1A80
ENDCHAR
STARTCHAR aacute
ENCODING 225
SWIDTH 479 0
DWIDTH 10 0
BBX 12 23 0 -2
BITMAP
0040
00E0
01F0
07C0
0200
0000
FFC0
7F80
3F00
3F00
3F00
3F00
3F00
3F00
3F00
3F00
3F00
3300
3F00
3F00
3F00
3300
3500
ENDCHAR
STARTCHAR acircumflex
ENCODING 226
SWIDTH 479 0
DWIDTH 10 0
BBX 10 25 0 -2
BITMAP
1E00
1E00
3F00
3F00
7380
61C0
4080
0000
FFC0
7F80
3F00
3F00
3F00
3F00
3F00
3F00
3F00
3F00
3F00
3300
3F00
3F00
3F00
3300
3500
ENDCHAR
STARTCHAR atilde
ENCODING 227
SWIDTH 479 0
DWIDTH 10 0
BBX 10 23 0 -2
BITMAP
2300
EF80
7F80
7F80
1000
0000
FFC0
7F80
3F00
3F00
3F00
3F00
3F00
3F00
3F00
3F00
3F00
3300
3F00
3F00
3F00
3300
3500
ENDCHAR
STARTCHAR adieresis
ENCODING 228
SWIDTH 479 0
DWIDTH 10 0
BBX 10 23 0 -2
BITMAP
F3C0
F3C0
F3C0
F3C0
F3C0
0000
FFC0
7F80
3F00
3F00
3F00
3F00
3F00
3F00
3F00
3F00
3F00
3300
3F00
3F00
3F00
3300
3500
ENDCHAR
STARTCHAR aring
ENCODING 229
SWIDTH 479 0
DWIDTH 10 0
BBX 10 24 0 -2
BITMAP
1E00
3300
1300
1A00
1E00
0000
0000
FFC0
7F80
3F00
3F00
3F00
3F00
3F00
3F00
3F00
3F00
3F00
3300
3F00
3F00
3F00
3300
3500
ENDCHAR
STARTCHAR ae
ENCODING 230
SWIDTH 755 0
DWIDTH 15 0
BBX 15 17 0 -2
BITMAP
FFF2
7FFC
3FFC
3FF8
3FF8
3FF8
3FF8
3F88
3F80
3FF0
3FE0
3BE0
3F80
3FF0
3BF0
3350
3110
ENDCHAR
STARTCHAR ccedilla
ENCODING 231
SWIDTH 534 0
DWIDTH 11 0
BBX 9 23 1 -8
BITMAP
1E00
7F00
FF80
FF80
FF80
FF80
FF80
F780
F380
F000
7000
7300
7700
7700
3E00
1C00
0600
0400
0C00
0F00
0300
0F00
0F00
ENDCHAR
STARTCHAR egrave
ENCODING 232
SWIDTH 632 0
DWIDTH 13 0
BBX 12 23 0 -2
BITMAP
2000
3800
FC00
3E00
0200
0000
1FC0
FFF0
7FE0
3FE0
3FC0
3FC0
3FC0
3C40
1C00
1F80
1F80
1F80
1C00
1F80
0F80
0A80
0040
ENDCHAR
STARTCHAR eacute
ENCODING 233
SWIDTH 632 0
DWIDTH 13 0
BBX 13 23 0 -2
BITMAP
0030
0070
00F8
03E0
0100
0000
1FC0
FFF0
7FE0
3FE0
3FC0
3FC0
3FC0
3C40
1C00
1F80
1F80
1F80
1C00
1F80
0F80
0A80
0040
ENDCHAR
STARTCHAR ecircumflex
ENCODING 234
SWIDTH 632 0
DWIDTH 13 0
BBX 12 25 0 -2
BITMAP
0F00
0F00
1F80
1FC0
39C0
30E0
2040
0000
1FC0
FFF0
7FE0
3FE0
3FC0
3FC0
3FC0
3C40
1C00
1F80
1F80
1F80
1C00
1F80
0F80
0A80
0040
ENDCHAR
STARTCHAR edieresis
ENCODING 235
SWIDTH 632 0
DWIDTH 13 0
BBX 12 23 0 -2
BITMAP
79E0
79E0
79E0
79E0
79E0
0000
1FC0
FFF0
7FE0
3FE0
3FC0
3FC0
3FC0
3C40
1C00
1F80
1F80
1F80
1C00
1F80
0F80
0A80
0040
ENDCHAR
STARTCHAR igrave
ENCODING 236
SWIDTH 411 0
DWIDTH 8 0
BBX 10 22 -2 -1
BITMAP
2000
3000
FC00
3E00
0200
0000
3FC0
1F80
0F80
0F80
0F00
0F00
0F00
0F00
0F00
0700
0700
0700
0700
0700
0700
0100
ENDCHAR
STARTCHAR iacute
ENCODING 237
SWIDTH 411 0
DWIDTH 8 0
BBX 11 22 0 -1
BITMAP
0080
01C0
03E0
0F80
0400
0000
FF00
7E00
3E00
3E00
3C00
3C00
3C00
3C00
3C00
1C00
1C00
1C00
1C00
1C00
1C00
0400
ENDCHAR
STARTCHAR icircumflex
ENCODING 238
SWIDTH 411 0
DWIDTH 8 0
BBX 9 24 0 -1
BITMAP
3C00
3E00
3E00
7700
6700
C380
8100
0000
FF00
7E00
3E00
3E00
3C00
3C00
3C00
3C00
3C00
1C00
1C00
1C00
1C00
1C00
1C00
0400
ENDCHAR
STARTCHAR idieresis
ENCODING 239
SWIDTH 411 0
DWIDTH 8 0
BBX 10 22 -1 -1
BITMAP
F3C0
F3C0
F3C0
F3C0
F3C0
0000
7F80
3F00
1F00
1F00
1E00
1E00
1E00
1E00
1E00
0E00
0E00
0E00
0E00
0E00
0E00
0200
ENDCHAR
STARTCHAR eth
ENCODING 240
SWIDTH 530 0
DWIDTH 11 0
BBX 10 18 1 -3
BITMAP
0F00
FF80
7FC0
7FC0
3FC0
3FC0
3FC0
39C0
3980
FD80
3980
3980
1B80
1F00
1700
2600
2400
0400
ENDCHAR
STARTCHAR ntilde
ENCODING 241
SWIDTH 664 0
DWIDTH 13 0
BBX 13 23 0 -2
BITMAP
1180
3BC0
3FE0
1EC0
0800
0000
FCF8
7CF0
7EF0
3EE0
3EE0
3FE0
3FE0
3FE0
3FE0
3FE0
3BC0
1BC0
1BC0
1BC0
1980
1980
0180
ENDCHAR
STARTCHAR ograve
ENCODING 242
SWIDTH 545 0
DWIDTH 11 0
BBX 12 23 -1 -2
BITMAP
2000
3800
FC00
3E00
0200
0000
0780
1FC0
3FE0
3FF0
3FE0
3FF0
3FF0
3DE0
39E0
39E0
3DE0
1DC0
1DC0
1FC0
0F80
0580
0080
ENDCHAR
STARTCHAR oacute
ENCODING 243
SWIDTH 545 0
DWIDTH 11 0
BBX 11 23 1 -2
BITMAP
00C0
01C0
03E0
0780
0400
0000
1E00
7F00
FF80
FFC0
FF80
FFC0
FFC0
F780
E780
E780
F780
7700
7700
7F00
3E00
1600
0200
ENDCHAR
STARTCHAR ocircumflex
ENCODING 244
SWIDTH 545 0
DWIDTH 11 0
BBX 10 25 1 -2
BITMAP
3C00
3E00
7E00
7F00
E700
C380
8100
0000
1E00
7F00
FF80
FFC0
FF80
FFC0
FFC0
F780
E780
E780
F780
7700
7700
7F00
3E00
1600
0200
ENDCHAR
STARTCHAR otilde
ENCODING 245
SWIDTH 545 0
DWIDTH 11 0
BBX 11 23 0 -2
BITMAP
2300
E780
7FC0
3F80
1000
0000
0F00
3F80
7FC0
7FE0
7FC0
7FE0
7FE0
7BC0
73C0
73C0
7BC0
3B80
3B80
3F80
1F00
0B00
0100
ENDCHAR
STARTCHAR odieresis
ENCODING 246
SWIDTH 545 0
DWIDTH 11 0
BBX 10 23 1 -2
BITMAP
E780
E780
E780
E780
E780
0000
1E00
7F00
FF80
FFC0
FF80
FFC0
FFC0
F780
E780
E780
F780
7700
7700
7F00
3E00
1600
0200
ENDCHAR
STARTCHAR oslash
ENCODING 248
SWIDTH 676 0
DWIDTH 14 0
BBX 13 17 0 -2
BITMAP
0F00
3F88
7FD0
7FE0
7FC0
7FC0
7FC0
7BC0
7FC0
39C0
3BC0
3B80
3B80
7F80
9F00
0B00
0100
ENDCHAR
STARTCHAR ugrave
ENCODING 249
SWIDTH 708 0
DWIDTH 14 0
BBX 14 21 0 0
BITMAP
1000
1800
7E00
1F00
0100
0000
9E00
7CFC
3CF8
3CF8
3EF0
3EF0
1EF0
1EF0
1CF0
1CF0
1EE0
1EE0
0FE0
0FE0
06C0
ENDCHAR
STARTCHAR uacute
ENCODING 250
SWIDTH 708 0
DWIDTH 14 0
BBX 14 21 0 0
BITMAP
0010
0038
007C
01F0
0080
0000
9E00
7CFC
3CF8
3CF8
3EF0
3EF0
1EF0
1EF0
1CF0
1CF0
1EE0
1EE0
0FE0
0FE0
06C0
ENDCHAR
STARTCHAR ucircumflex
ENCODING 251
SWIDTH 708 0
DWIDTH 14 0
BBX 14 23 0 0
BITMAP
0780
0780
0FC0
0FC0
1CE0
1870
1020
0000
9E00
7CFC
3CF8
3CF8
3EF0
3EF0
1EF0
1EF0
1CF0
1CF0
1EE0
1EE0
0FE0
0FE0
06C0
ENDCHAR
STARTCHAR udieresis
ENCODING 252
SWIDTH 708 0
DWIDTH 14 0
BBX 14 21 0 0
BITMAP
3CF0
3CF0
3CF0
3CF0
3CF0
0000
9E00
7CFC
3CF8
3CF8
3EF0
3EF0
1EF0
1EF0
1CF0
1CF0
1EE0
1EE0
0FE0
0FE0
06C0
ENDCHAR
STARTCHAR yacute
ENCODING 253
SWIDTH 604 0
DWIDTH 12 0
BBX 13 22 0 -1
BITMAP
0020
0070
00F8
03E0
0100
0000
B900
79F0
1DC0
1FC0
0F80
0F00
0F00
0700
0700
0700
0700
0700
0700
0700
0700
0700
ENDCHAR
STARTCHAR thorn
ENCODING 254
SWIDTH 498 0
DWIDTH 10 0
BBX 9 21 0 -3
BITMAP
FC00
F800
7800
7F00
7F80
7F80
7F80
7F80
7F80
7B80
3980
3980
3980
3F80
3F00
3800
3800
3800
1800
1400
1800
ENDCHAR
STARTCHAR ydieresis
ENCODING 255
SWIDTH 604 0
DWIDTH 12 0
BBX 12 22 0 -1
BITMAP
34F0
3DF0
3DE0
3DF0
3DF0
0000
B900
79F0
1DC0
1FC0
0F80
0F00
0F00
0700
0700
0700
0700
0700
0700
0700
0700
0700
ENDCHAR
STARTCHAR Amacron
ENCODING 256
SWIDTH 494 0
DWIDTH 10 0
BBX 9 22 0 -4
BITMAP
7F00
7F00
0000
0000
FF80
3F00
3F00
3F00
3F00
3E00
3E00
3E00
3600
3600
3E00
3E00
3E00
3600
3600
3600
3200
0400
ENDCHAR
STARTCHAR amacron
ENCODING 257
SWIDTH 479 0
DWIDTH 10 0
BBX 10 21 0 -2
BITMAP
3F80
3F00
0000
0000
FFC0
7F80
3F00
3F00
3F00
3F00
3F00
3F00
3F00
3F00
3F00
3300
3F00
3F00
3F00
3300
3500
ENDCHAR
STARTCHAR Abreve
ENCODING 258
SWIDTH 494 0
DWIDTH 10 0
BBX 10 26 0 -4
BITMAP
31C0
3980
1F80
1F80
0A80
0080
0000
0000
FF80
3F00
3F00
3F00
3F00
3E00
3E00
3E00
3600
3600
3E00
3E00
3E00
3600
3600
3600
3200
0400
ENDCHAR
STARTCHAR abreve
ENCODING 259
SWIDTH 479 0
DWIDTH 10 0
BBX 10 24 0 -2
BITMAP
31C0
3980
1F80
1F80
0B00
0080
0000
FFC0
7F80
3F00
3F00
3F00
3F00
3F00
3F00
3F00
3F00
3F00
3300
3F00
3F00
3F00
3300
3500
ENDCHAR
STARTCHAR Aogonek
ENCODING 260
SWIDTH 494 0
DWIDTH 10 0
BBX 9 22 0 -8
BITMAP
FF80
3F00
3F00
3F00
3F00
3E00
3E00
3E00
3600
3600
3E00
3E00
3E00
3600
3600
3600
2E00
0C00
0E00
0E00
0780
0780
ENDCHAR
STARTCHAR aogonek
ENCODING 261
SWIDTH 479 0
DWIDTH 10 0
BBX 10 22 0 -7
BITMAP
FFC0
7F80
3F00
3F00
3F00
3F00
3F00
3F00
3F00
3F00
3F00
3300
3F00
3F00
3F00
3300
3300
0600
0600
0700
03C0
01C0
ENDCHAR
STARTCHAR Cacute
ENCODING 262
SWIDTH 504 0
DWIDTH 10 0
BBX 10 23 1 -2
BITMAP
0100
0380
07C0
1F00
0800
0000
3C00
7F00
FF00
FF80
FF80
FF80
FF80
F700
F700
F000
E000
6700
7700
7E00
7E00
2C00
1800
ENDCHAR
STARTCHAR cacute
ENCODING 263
SWIDTH 534 0
DWIDTH 11 0
BBX 10 22 1 -1
BITMAP
0180
0380
07C0
0F00
0800
0000
1E00
7F00
FF80
FF80
FF80
FF80
FF80
F780
F380
F000
7000
7300
7700
7700
3E00
1C00
ENDCHAR
STARTCHAR Ccircumflex
ENCODING 264
SWIDTH 504 0
DWIDTH 10 0
BBX 9 25 1 -2
BITMAP
3C00
3E00
3E00
7700
6700
C380
8100
0000
3C00
7F00
FF00
FF80
FF80
FF80
FF80
F700
F700
F000
E000
6700
7700
7E00
7E00
2C00
1800
ENDCHAR
STARTCHAR ccircumflex
ENCODING 265
SWIDTH 534 0
DWIDTH 11 0
BBX 10 24 1 -1
BITMAP
1E00
1E00
3F00
3F00
7380
61C0
C080
0000
1E00
7F00
FF80
FF80
FF80
FF80
FF80
F780
F380
F000
7000
7300
7700
7700
3E00
1C00
ENDCHAR
STARTCHAR Cdotaccent
ENCODING 266
SWIDTH 504 0
DWIDTH 10 0
BBX 9 25 1 -2
BITMAP
4E00
3E00
3E00
3E00
3E00
3E00
2000
0000
3C00
7F00
FF00
FF80
FF80
FF80
FF80
F700
F700
F000
E000
6700
7700
7E00
7E00
2C00
1800
ENDCHAR
STARTCHAR cdotaccent
ENCODING 267
SWIDTH 534 0
DWIDTH 11 0
BBX 9 24 1 -1
BITMAP
0E00
3E00
3E00
3E00
3E00
3E00
2000
0000
1E00
7F00
FF80
FF80
FF80
FF80
FF80
F780
F380
F000
7000
7300
7700
7700
3E00
1C00
ENDCHAR
STARTCHAR Ccaron
ENCODING 268
SWIDTH 504 0
DWIDTH 10 0
BBX 9 25 1 -2
BITMAP
C300
E380
E700
7F00
7E00
3E00
3C00
0000
3C00
7F00
FF00
FF80
FF80
FF80
FF80
F700
F700
F000
E000
6700
7700
7E00
7E00
2C00
1800
ENDCHAR
STARTCHAR ccaron
ENCODING 269
SWIDTH 534 0
DWIDTH 11 0
BBX 9 24 1 -1
BITMAP
E180
6380
7380
3F00
3F00
3E00
1E00
0000
1E00
7F00
FF80
FF80
FF80
FF80
FF80
F780
F380
F000
7000
7300
7700
7700
3E00
1C00
ENDCHAR
STARTCHAR Dcaron
ENCODING 270
SWIDTH 522 0
DWIDTH 10 0
BBX 11 26 0 -3
BITMAP
30C0
38E0
39C0
1F80
1F80
0F00
0F00
0000
0700
FF80
7FC0
7FC0
3FC0
3FC0
3FC0
39C0
3980
3980
3980
1980
1F80
1F80
1700
1600
1600
0400
ENDCHAR
STARTCHAR dcaron
ENCODING 271
SWIDTH 522 0
DWIDTH 10 0
BBX 11 26 0 -3
BITMAP
30C0
38E0
39C0
1F80
1F80
0F00
0F00
0000
0700
FF80
7FC0
7FC0
3FC0
3FC0
3FC0
39C0
3980
3980
3980
1980
1F80
1F80
1700
1600
1600
0400
ENDCHAR
STARTCHAR Eth.dup2
ENCODING 272
SWIDTH 530 0
DWIDTH 11 0
BBX 10 18 1 -3
BITMAP
0F00
FF80
7FC0
7FC0
3FC0
3FC0
3FC0
39C0
3980
FD80
3980
3980
1B80
1F00
1700
2600
2400
0400
ENDCHAR
STARTCHAR Emacron
ENCODING 274
SWIDTH 570 0
DWIDTH 11 0
BBX 11 19 0 -1
BITMAP
3F80
3F80
0000
BF00
7FE0
3FC0
3FC0
3F80
3F80
3F80
3800
3E00
3F00
3F00
1800
1E00
1F00
1700
1500
ENDCHAR
STARTCHAR emacron
ENCODING 275
SWIDTH 632 0
DWIDTH 13 0
BBX 12 20 0 -2
BITMAP
1FC0
1F80
0000
1FC0
FFF0
7FE0
3FE0
3FC0
3FC0
3FC0
3C40
1C00
1F80
1F80
1F80
1C00
1F80
0F80
0A80
0040
ENDCHAR
STARTCHAR Ebreve
ENCODING 276
SWIDTH 570 0
DWIDTH 11 0
BBX 11 23 0 -1
BITMAP
18C0
18C0
1FC0
0F80
0580
0080
0000
BF00
7FE0
3FC0
3FC0
3F80
3F80
3F80
3800
3E00
3F00
3F00
1800
1E00
1F00
1700
1500
ENDCHAR
STARTCHAR ebreve
ENCODING 277
SWIDTH 632 0
DWIDTH 13 0
BBX 12 24 0 -2
BITMAP
0C60
0C60
0FE0
07C0
02C0
0040
0000
1FC0
FFF0
7FE0
3FE0
3FC0
3FC0
3FC0
3C40
1C00
1F80
1F80
1F80
1C00
1F80
0F80
0A80
0040
ENDCHAR
STARTCHAR Edotaccent
ENCODING 278
SWIDTH 570 0
DWIDTH 11 0
BBX 11 24 0 -1
BITMAP
2700
1F00
1F00
1F00
1F00
1F00
1000
0000
BF00
7FE0
3FC0
3FC0
3F80
3F80
3F80
3800
3E00
3F00
3F00
1800
1E00
1F00
1700
1500
ENDCHAR
STARTCHAR edotaccent
ENCODING 279
SWIDTH 632 0
DWIDTH 13 0
BBX 12 25 0 -2
BITMAP
0700
1F80
0F80
0F80
0F80
0F80
1000
0000
1FC0
FFF0
7FE0
3FE0
3FC0
3FC0
3FC0
3C40
1C00
1F80
1F80
1F80
1C00
1F80
0F80
0A80
0040
ENDCHAR
STARTCHAR Eogonek
ENCODING 280
SWIDTH 513 0
DWIDTH 10 0
BBX 11 22 0 -7
BITMAP
BF00
7FE0
3FC0
3FC0
3F80
3F80
3F80
3800
3E00
3F00
3F00
1800
1E00
1F00
1F00
1700
0600
0600
0700
07C0
03C0
00C0
ENDCHAR
STARTCHAR eogonek
ENCODING 281
SWIDTH 632 0
DWIDTH 13 0
BBX 12 22 0 -7
BITMAP
1FC0
FFF0
7FE0
3FE0
3FC0
3FC0
3FC0
3C40
1C00
1F80
1F80
1F80
1C00
1F80
0F80
0B00
0300
0300
0300
03E0
01E0
0060
ENDCHAR
STARTCHAR Ecaron
ENCODING 282
SWIDTH 570 0
DWIDTH 11 0
BBX 11 24 0 -1
BITMAP
30C0
39E0
39C0
1F80
1F80
0F00
0F00
0000
BF00
7FE0
3FC0
3FC0
3F80
3F80
3F80
3800
3E00
3F00
3F00
1800
1E00
1F00
1700
1500
ENDCHAR
STARTCHAR ecaron
ENCODING 283
SWIDTH 632 0
DWIDTH 13 0
BBX 12 25 0 -2
BITMAP
1860
1CF0
1CE0
0FC0
0FC0
0780
0780
0000
1FC0
FFF0
7FE0
3FE0
3FC0
3FC0
3FC0
3C40
1C00
1F80
1F80
1F80
1C00
1F80
0F80
0A80
0040
ENDCHAR
STARTCHAR Gcircumflex
ENCODING 284
SWIDTH 499 0
DWIDTH 10 0
BBX 10 25 0 -2
BITMAP
1E00
3E00
3F00
3700
7380
6180
C080
0000
0C00
7F00
7F80
7F80
7FC0
7F80
7F80
7380
7380
7400
7780
3780
3B80
3F80
3F80
1F00
1600
ENDCHAR
STARTCHAR gcircumflex
ENCODING 285
SWIDTH 546 0
DWIDTH 11 0
BBX 10 25 1 -2
BITMAP
3C00
3E00
7E00
7F00
6700
C380
8100
0000
3C00
7F00
FF80
FF80
FFC0
FFC0
FF80
F780
F780
F080
7700
7780
7780
7B80
3F80
3F00
1600
ENDCHAR
STARTCHAR Gbreve
ENCODING 286
SWIDTH 499 0
DWIDTH 10 0
BBX 9 24 1 -2
BITMAP
E300
6700
7F00
3E00
1600
0200
0000
1800
FE00
FF00
FF00
FF80
FF00
FF00
E700
E700
E800
EF00
6F00
7700
7F00
7F00
3E00
2C00
ENDCHAR
STARTCHAR gbreve
ENCODING 287
SWIDTH 546 0
DWIDTH 11 0
BBX 10 24 1 -2
BITMAP
6380
7300
7F00
3F00
1600
0100
0000
3C00
7F00
FF80
FF80
FFC0
FFC0
FF80
F780
F780
F080
7700
7780
7780
7B80
3F80
3F00
1600
ENDCHAR
STARTCHAR Gdotaccent
ENCODING 288
SWIDTH 499 0
DWIDTH 10 0
BBX 9 25 1 -2
BITMAP
1C00
7C00
7C00
7E00
3C00
3C00
4000
0000
1800
FE00
FF00
FF00
FF80
FF00
FF00
E700
E700
E800
EF00
6F00
7700
7F00
7F00
3E00
2C00
ENDCHAR
STARTCHAR gdotaccent
ENCODING 289
SWIDTH 546 0
DWIDTH 11 0
BBX 10 25 1 -2
BITMAP
5E00
3E00
3E00
3E00
3E00
3E00
2000
0000
3C00
7F00
FF80
FF80
FFC0
FFC0
FF80
F780
F780
F080
7700
7780
7780
7B80
3F80
3F00
1600
ENDCHAR
STARTCHAR Gcommaaccent
ENCODING 290
SWIDTH 499 0
DWIDTH 10 0
BBX 9 27 1 -12
BITMAP
1800
FE00
FF00
FF00
FF80
FF00
FF00
E700
E700
E800
EF00
6F00
7700
7F00
7F00
3E00
2C00
0000
3E00
3E00
3E00
3E00
3E00
0600
0600
0600
0600
ENDCHAR
STARTCHAR Hcircumflex
ENCODING 292
SWIDTH 726 0
DWIDTH 15 0
BBX 14 27 0 -4
BITMAP
0780
0780
0FC0
0FC0
1CE0
1870
3020
0000
0EE8
FCFC
3C78
3CF8
3CF0
3CF0
3CF0
1CF0
1FF0
1FE0
1FE0
1CE0
1CE0
1CE0
1DC0
10C0
0040
0100
0100
ENDCHAR
STARTCHAR hcircumflex
ENCODING 293
SWIDTH 730 0
DWIDTH 15 0
BBX 14 24 0 -1
BITMAP
0780
0780
0FC0
0FC0
1CE0
1870
1020
0000
0EF8
FCFC
3C78
3CF8
3CF0
3CF0
3CF0
1CF0
1FE0
1FE0
1EE0
1CE0
1CE0
1CE0
1DE0
10E0
ENDCHAR
STARTCHAR hbar
ENCODING 295
SWIDTH 704 0
DWIDTH 14 0
BBX 14 16 0 -1
BITMAP
0EF4
FCF8
3CF8
3FF0
3FF0
3FF0
3FE0
1CE0
1FE0
1FE0
1FE0
1CE0
1CE0
1CE0
1DE0
10E0
ENDCHAR
STARTCHAR Itilde
ENCODING 296
SWIDTH 401 0
DWIDTH 8 0
BBX 9 22 -1 -1
BITMAP
4600
EF00
FF80
7B00
1000
0000
7F80
3F00
1F00
1F00
1E00
1E00
1E00
1E00
1E00
1E00
0E00
0E00
0E00
0E00
0E00
0C00
ENDCHAR
STARTCHAR itilde
ENCODING 297
SWIDTH 411 0
DWIDTH 8 0
BBX 9 22 -1 -1
BITMAP
4300
EF80
7F80
7F80
1000
0000
7F80
3F00
1F00
1F00
1E00
1E00
1E00
1E00
1E00
0E00
0E00
0E00
0E00
0E00
0E00
0200
ENDCHAR
STARTCHAR Imacron
ENCODING 298
SWIDTH 401 0
DWIDTH 8 0
BBX 8 19 0 -1
BITMAP
FE
FE
00
FF
7E
3E
3E
3C
3C
3C
3C
3C
3C
1C
1C
1C
1C
1C
18
ENDCHAR
STARTCHAR imacron
ENCODING 299
SWIDTH 411 0
DWIDTH 8 0
BBX 8 19 0 -1
BITMAP
7E
7E
00
FF
7E
3E
3E
3C
3C
3C
3C
3C
1C
1C
1C
1C
1C
1C
04
ENDCHAR
STARTCHAR Ibreve
ENCODING 300
SWIDTH 401 0
DWIDTH 8 0
BBX 8 23 0 -1
BITMAP
63
63
7F
3E
16
02
00
FF
7E
3E
3E
3C
3C
3C
3C
3C
3C
1C
1C
1C
1C
1C
18
ENDCHAR
STARTCHAR ibreve
ENCODING 301
SWIDTH 411 0
DWIDTH 8 0
BBX 8 23 0 -1
BITMAP
E3
67
7F
3E
16
02
00
FF
7E
3E
3E
3C
3C
3C
3C
3C
1C
1C
1C
1C
1C
1C
04
ENDCHAR
STARTCHAR Iogonek
ENCODING 302
SWIDTH 401 0
DWIDTH 8 0
BBX 8 23 0 -8
BITMAP
FF
7E
3E
3E
3C
3C
3C
3C
3C
3C
1C
1C
1C
1C
1C
18
18
30
30
38
3E
1E
0E
ENDCHAR
STARTCHAR iogonek
ENCODING 303
SWIDTH 412 0
DWIDTH 8 0
BBX 8 22 0 -7
BITMAP
FF
7E
3E
3E
3C
3C
3C
3C
3C
1C
1C
1C
1C
1C
1C
1C
18
30
30
38
1F
1E
ENDCHAR
STARTCHAR Idotaccent
ENCODING 304
SWIDTH 401 0
DWIDTH 8 0
BBX 8 24 0 -1
BITMAP
1C
7C
7E
7C
7C
3C
40
00
FF
7E
3E
3E
3C
3C
3C
3C
3C
3C
1C
1C
1C
1C
1C
18
ENDCHAR
STARTCHAR dotlessi
ENCODING 305
SWIDTH 411 0
DWIDTH 8 0
BBX 8 16 0 -1
BITMAP
FF
7E
3E
3E
3C
3C
3C
3C
3C
1C
1C
1C
1C
1C
1C
04
ENDCHAR
STARTCHAR IJ
ENCODING 306
SWIDTH 908 0
DWIDTH 18 0
BBX 18 16 0 -1
BITMAP
FF0F40
7E0F80
3E0780
3E0780
3E0700
3E0700
3E0700
3C0700
3C0700
3C0700
1C6600
1C6600
1C6E00
1C7E00
143C00
141C00
ENDCHAR
STARTCHAR ij
ENCODING 307
SWIDTH 901 0
DWIDTH 18 0
BBX 18 16 0 -1
BITMAP
FF1E00
7E0FC0
3E0F80
3E0F80
3E0F00
3C0F00
3C0F00
3C0F00
1C0700
1C0700
1CE700
1C6700
1C7700
1C7E00
1C3E00
040600
ENDCHAR
STARTCHAR Jcircumflex
ENCODING 308
SWIDTH 455 0
DWIDTH 9 0
BBX 10 24 0 -1
BITMAP
0E00
1F00
1F00
3B80
3180
61C0
2080
0000
1E80
1F00
0F00
0F00
0E00
0E00
0E00
0E00
0E00
0E00
CC00
CC00
DC00
FC00
7800
3800
ENDCHAR
STARTCHAR jcircumflex
ENCODING 309
SWIDTH 458 0
DWIDTH 9 0
BBX 11 24 -1 -1
BITMAP
0700
0F80
0F80
1DC0
18C0
30E0
1040
0000
1E00
0FC0
0F80
0F80
0700
0700
0700
0700
0700
0700
E700
7700
7700
7F00
3E00
0500
ENDCHAR
STARTCHAR Kcommaaccent
ENCODING 310
SWIDTH 580 0
DWIDTH 12 0
BBX 11 26 0 -11
BITMAP
F980
79E0
3DC0
3F80
3F00
1F00
1F00
1F00
1F00
1F00
1F00
1F00
1B80
0980
0D80
0D80
0000
0F80
0F80
0F80
0F80
0F80
0180
0180
0300
0300
ENDCHAR
STARTCHAR kcommaaccent
ENCODING 311
SWIDTH 636 0
DWIDTH 13 0
BBX 13 26 0 -11
BITMAP
1CF8
FDE0
3DC0
3D80
1D80
1D80
1D80
1F00
1F00
1F00
0F80
0F80
0D80
0DC0
0CC0
0C80
0000
0780
0780
0780
0780
0780
0180
0180
0180
0180
ENDCHAR
STARTCHAR kgreenlandic
ENCODING 312
SWIDTH 636 0
DWIDTH 13 0
BBX 13 16 0 -1
BITMAP
1CF8
FDE0
3DC0
3D80
1D80
1D80
1D80
1F00
1F00
1F00
0F80
0F80
0D80
0DC0
0CC0
0C80
ENDCHAR
STARTCHAR Lacute
ENCODING 313
SWIDTH 416 0
DWIDTH 8 0
BBX 11 23 0 -2
BITMAP
0080
01C0
03E0
0F80
0400
0000
FE00
7C00
7800
3C00
3800
3800
3800
3800
3800
3800
3800
3800
3F80
1F80
1F00
1500
0100
ENDCHAR
STARTCHAR lacute
ENCODING 314
SWIDTH 438 0
DWIDTH 9 0
BBX 11 22 0 -1
BITMAP
00C0
01C0
03E0
0780
0400
0000
3F00
FE00
3C00
3C00
3C00
3C00
3C00
1C00
1C00
1C00
1C00
1C00
1F80
1F80
1F80
1100
ENDCHAR
STARTCHAR Lcommaaccent
ENCODING 315
SWIDTH 416 0
DWIDTH 8 0
BBX 9 27 0 -12
BITMAP
FE00
7C00
7800
3C00
3800
3800
3800
3800
3800
3800
3800
3800
3F80
1F80
1F00
1500
0100
0000
3E00
3E00
3E00
3E00
3E00
0600
0600
0600
0600
ENDCHAR
STARTCHAR lcommaaccent
ENCODING 316
SWIDTH 438 0
DWIDTH 9 0
BBX 9 27 0 -12
BITMAP
3F00
FE00
3C00
3C00
3C00
3C00
3C00
1C00
1C00
1C00
1C00
1C00
1F80
1F80
1F80
1100
0000
0000
1E00
1E00
1E00
1E00
1E00
0600
0600
0600
0600
ENDCHAR
STARTCHAR Lcaron
ENCODING 317
SWIDTH 714 0
DWIDTH 14 0
BBX 14 17 0 -2
BITMAP
FEF8
7CF8
78FC
3CFC
38FC
38FC
3818
3818
3818
3818
3800
3800
3F80
1F80
1F00
1500
0100
ENDCHAR
STARTCHAR lcaron
ENCODING 318
SWIDTH 782 0
DWIDTH 16 0
BBX 15 16 0 -1
BITMAP
3F3E
FE3E
3C3E
3C3E
3C3E
3C3E
3C06
1C06
1C0C
1C0C
1C00
1C00
1F80
1F80
1F80
1100
ENDCHAR
STARTCHAR Ldotaccent
ENCODING 319
SWIDTH 567 0
DWIDTH 11 0
BBX 12 17 0 -2
BITMAP
FE00
7C00
7800
3DF0
39F0
39F0
39F0
39F0
39F0
3800
3800
3800
3F80
1F80
1F00
1500
0100
ENDCHAR
STARTCHAR ldot
ENCODING 320
SWIDTH 660 0
DWIDTH 13 0
BBX 14 16 0 -1
BITMAP
3F00
FE00
3C00
3C00
3C38
3CFC
3C7C
1C7C
1C7C
1C7C
1C80
1C00
1F80
1F80
1F80
1100
ENDCHAR
STARTCHAR Lslash
ENCODING 321
SWIDTH 428 0
DWIDTH 9 0
BBX 9 17 0 -2
BITMAP
FE00
7C00
3800
3C00
3980
3F80
3F80
FF80
7E00
7800
5800
1800
1F80
1F80
1F00
1500
0100
ENDCHAR
STARTCHAR lslash
ENCODING 322
SWIDTH 457 0
DWIDTH 9 0
BBX 10 16 0 -1
BITMAP
3F80
FE00
3C00
3C00
3D80
3FC0
3FC0
FFC0
7E00
7C00
5C00
1C00
1FC0
1F80
0F80
1180
ENDCHAR
STARTCHAR Nacute
ENCODING 323
SWIDTH 610 0
DWIDTH 12 0
BBX 13 24 0 -3
BITMAP
0020
0070
00F8
03E0
0100
0000
1D80
FDF0
3DC0
3DC0
3FC0
3FC0
3FC0
3FC0
3FC0
3FC0
1B80
1B80
1B80
1B80
1980
1980
1580
1500
ENDCHAR
STARTCHAR nacute
ENCODING 324
SWIDTH 664 0
DWIDTH 13 0
BBX 14 23 0 -2
BITMAP
0010
0030
00FC
01F0
0100
0000
FCF8
7CF0
7EF0
3EE0
3EE0
3FE0
3FE0
3FE0
3FE0
3FE0
3BC0
1BC0
1BC0
1BC0
1980
1980
0180
ENDCHAR
STARTCHAR Ncommaaccent
ENCODING 325
SWIDTH 610 0
DWIDTH 12 0
BBX 12 28 0 -13
BITMAP
1D80
FDF0
3DC0
3DC0
3FC0
3FC0
3FC0
3FC0
3FC0
3FC0
1B80
1B80
1B80
1B80
1980
1980
1580
1500
0000
0780
0780
0780
0780
0780
0180
0180
0180
0180
ENDCHAR
STARTCHAR ncommaaccent
ENCODING 326
SWIDTH 664 0
DWIDTH 13 0
BBX 13 27 0 -12
BITMAP
FCF8
7CF0
7EF0
3EE0
3EE0
3FE0
3FE0
3FE0
3FE0
3FE0
3BC0
1BC0
1BC0
1BC0
1980
1980
0180
0000
07C0
07C0
07C0
07C0
07C0
00C0
00C0
01C0
0180
ENDCHAR
STARTCHAR Ncaron
ENCODING 327
SWIDTH 610 0
DWIDTH 12 0
BBX 12 26 0 -3
BITMAP
30C0
38E0
19C0
1FC0
1F80
0F80
0F00
0000
1D80
FDF0
3DC0
3DC0
3FC0
3FC0
3FC0
3FC0
3FC0
3FC0
1B80
1B80
1B80
1B80
1980
1980
1580
1500
ENDCHAR
STARTCHAR ncaron
ENCODING 328
SWIDTH 664 0
DWIDTH 13 0
BBX 13 25 0 -2
BITMAP
1860
1C70
1CE0
0FE0
0FC0
0780
0780
0000
FCF8
7CF0
7EF0
3EE0
3EE0
3FE0
3FE0
3FE0
3FE0
3FE0
3BC0
1BC0
1BC0
1BC0
1980
1980
0180
ENDCHAR
STARTCHAR Omacron
ENCODING 332
SWIDTH 504 0
DWIDTH 10 0
BBX 9 20 1 -2
BITMAP
FE00
FE00
0000
1800
7E00
FF80
FF00
FF80
FF00
FF80
E780
E780
E700
E700
6700
7700
7E00
7E00
1600
0800
ENDCHAR
STARTCHAR omacron
ENCODING 333
SWIDTH 545 0
DWIDTH 11 0
BBX 10 20 1 -2
BITMAP
7F00
7F00
0000
1E00
7F00
FF80
FFC0
FF80
FFC0
FFC0
F780
E780
E780
F780
7700
7700
7F00
3E00
1600
0200
ENDCHAR
STARTCHAR Obreve
ENCODING 334
SWIDTH 504 0
DWIDTH 10 0
BBX 9 24 1 -2
BITMAP
6300
6300
7F00
3E00
1600
0200
0000
1800
7E00
FF80
FF00
FF80
FF00
FF80
E780
E780
E700
E700
6700
7700
7E00
7E00
1600
0800
ENDCHAR
STARTCHAR obreve
ENCODING 335
SWIDTH 545 0
DWIDTH 11 0
BBX 10 24 1 -2
BITMAP
6380
7300
7F00
3E00
1600
0200
0000
1E00
7F00
FF80
FFC0
FF80
FFC0
FFC0
F780
E780
E780
F780
7700
7700
7F00
3E00
1600
0200
ENDCHAR
STARTCHAR Ohungarumlaut
ENCODING 336
SWIDTH 504 0
DWIDTH 10 0
BBX 9 25 1 -2
BITMAP
2200
7380
7780
6700
C600
CC00
8800
0000
1800
7E00
FF80
FF00
FF80
FF00
FF80
E780
E780
E700
E700
6700
7700
7E00
7E00
1600
0800
ENDCHAR
STARTCHAR ohungarumlaut
ENCODING 337
SWIDTH 545 0
DWIDTH 11 0
BBX 10 25 1 -2
BITMAP
2200
33C0
7B80
7300
6600
C400
8400
0000
1E00
7F00
FF80
FFC0
FF80
FFC0
FFC0
F780
E780
E780
F780
7700
7700
7F00
3E00
1600
0200
ENDCHAR
STARTCHAR OE
ENCODING 338
SWIDTH 789 0
DWIDTH 16 0
BBX 14 18 1 -3
BITMAP
1FF0
7FFC
FFF8
FFF8
FFF8
FFF0
FFF0
E780
E7E0
E7E0
E7E0
6780
77E0
7FF0
7EE0
1690
1AA0
08A0
ENDCHAR
STARTCHAR oe
ENCODING 339
SWIDTH 778 0
DWIDTH 16 0
BBX 15 17 0 -2
BITMAP
1EF0
3FFE
7FFC
7FFC
FFF8
7FF8
7FF8
73C8
73C0
33F0
33F0
33F0
3B80
3FF0
1FF0
0B50
0110
ENDCHAR
STARTCHAR Racute
ENCODING 340
SWIDTH 599 0
DWIDTH 12 0
BBX 13 22 0 -1
BITMAP
0020
0060
00F8
03E0
0200
0000
0F80
FFC0
3FE0
3FF0
1FF0
1FE0
1DE0
1CE0
1CE0
1FE0
1FE0
0FC0
1DC0
0DC0
0CC0
0EE0
ENDCHAR
STARTCHAR racute
ENCODING 341
SWIDTH 616 0
DWIDTH 12 0
BBX 13 23 0 -2
BITMAP
0020
0070
00F8
03E0
0100
0000
1F00
FFE0
3FF0
3FF0
1FF0
1FF0
1EE0
1CE0
1CE0
1FE0
1FC0
1FC0
1DC0
1DC0
1DC0
1DC0
0040
ENDCHAR
STARTCHAR Rcommaaccent
ENCODING 342
SWIDTH 599 0
DWIDTH 12 0
BBX 12 27 0 -12
BITMAP
0F80
FFC0
3FE0
3FF0
1FF0
1FE0
1DE0
1CE0
1CE0
1FE0
1FE0
0FC0
1DC0
0DC0
0CC0
0AE0
0400
0000
0F80
0F80
0F80
0F80
0F80
0180
0180
0380
0300
ENDCHAR
STARTCHAR rcommaaccent
ENCODING 343
SWIDTH 616 0
DWIDTH 12 0
BBX 12 27 0 -12
BITMAP
1F00
FFE0
3FF0
3FF0
1FF0
1FF0
1EE0
1CE0
1CE0
1FE0
1FC0
1FC0
1DC0
1DC0
1DC0
1DC0
0040
0000
0780
0780
0F80
0F80
0F80
0180
0180
0180
0180
ENDCHAR
STARTCHAR Rcaron
ENCODING 344
SWIDTH 599 0
DWIDTH 12 0
BBX 12 24 0 -1
BITMAP
1840
38E0
1CE0
1DC0
0FC0
0F80
0780
0000
0F80
FFC0
3FE0
3FF0
1FF0
1FE0
1DE0
1CE0
1CE0
1FE0
1FE0
0FC0
1DC0
0DC0
0CC0
0EE0
ENDCHAR
STARTCHAR rcaron
ENCODING 345
SWIDTH 616 0
DWIDTH 12 0
BBX 12 25 0 -2
BITMAP
1840
38E0
1DE0
1DC0
0FC0
0F80
0780
0000
1F00
FFE0
3FF0
3FF0
1FF0
1FF0
1EE0
1CE0
1CE0
1FE0
1FC0
1FC0
1DC0
1DC0
1DC0
1DC0
0040
ENDCHAR
STARTCHAR Sacute
ENCODING 346
SWIDTH 504 0
DWIDTH 10 0
BBX 12 23 0 -2
BITMAP
0040
00C0
03F0
07C0
0400
0000
0E00
3F80
7FC0
7FC0
7FC0
7F80
FF80
7380
7C40
7F00
1F80
0380
7B80
7F00
3F00
1500
0400
ENDCHAR
STARTCHAR sacute
ENCODING 347
SWIDTH 481 0
DWIDTH 10 0
BBX 11 22 1 -1
BITMAP
0080
0380
07E0
0F80
0800
0000
1C00
7E00
FF00
FF00
FF00
FF00
FF00
E700
F100
FC00
7E00
0E00
E600
7E00
7C00
3C00
ENDCHAR
STARTCHAR Scircumflex
ENCODING 348
SWIDTH 504 0
DWIDTH 10 0
BBX 10 25 0 -2
BITMAP
0E00
1F00
1F80
3B80
31C0
61C0
2080
0000
0E00
3F80
7FC0
7FC0
7FC0
7F80
FF80
7380
7C40
7F00
1F80
0380
7B80
7F00
3F00
1500
0400
ENDCHAR
STARTCHAR scircumflex
ENCODING 349
SWIDTH 481 0
DWIDTH 10 0
BBX 9 24 1 -1
BITMAP
3C00
3E00
7E00
7700
6700
C380
8100
0000
1C00
7E00
FF00
FF00
FF00
FF00
FF00
E700
F100
FC00
7E00
0E00
E600
7E00
7C00
3C00
ENDCHAR
STARTCHAR Scedilla
ENCODING 350
SWIDTH 504 0
DWIDTH 10 0
BBX 10 22 0 -7
BITMAP
0E00
3F80
7FC0
7FC0
7FC0
7F80
FF80
7380
7C40
7F00
1F80
0380
7B80
7F00
3F00
1500
0400
0C00
0F00
0300
0F00
0B00
ENDCHAR
STARTCHAR scedilla
ENCODING 351
SWIDTH 481 0
DWIDTH 10 0
BBX 8 22 1 -7
BITMAP
1C
7E
FF
FF
FF
FF
FF
E7
F1
FC
7E
0E
E6
7E
7C
3C
10
10
3C
0C
3C
2C
ENDCHAR
STARTCHAR Scaron
ENCODING 352
SWIDTH 503 0
DWIDTH 10 0
BBX 10 27 0 -2
BITMAP
6180
71C0
7380
3F80
3F00
1F00
1E00
0000
0000
0000
0600
3F80
7FC0
7FC0
7FC0
7F80
FF80
7380
7C40
7F00
1F80
0380
7B80
7F00
3F00
1500
0400
ENDCHAR
STARTCHAR scaron
ENCODING 353
SWIDTH 479 0
DWIDTH 10 0
BBX 9 26 0 -1
BITMAP
6100
E380
7380
3F00
3F00
3E00
1E00
0000
0000
0000
1E00
3F00
7F80
7F80
7F80
7F80
7F80
7780
7880
7E00
3F00
0700
7300
3F00
3E00
1E00
ENDCHAR
STARTCHAR Tcommaaccent
ENCODING 354
SWIDTH 622 0
DWIDTH 12 0
BBX 11 23 1 -8
BITMAP
3F00
FFE0
7FC0
7FC0
7FC0
7FC0
7FC0
4E40
0E00
0E00
0E00
0E00
0E00
0E00
0E00
0E00
0E00
0400
0C00
0F00
0300
0F00
0B00
ENDCHAR
STARTCHAR tcommaaccent
ENCODING 355
SWIDTH 683 0
DWIDTH 14 0
BBX 13 23 0 -8
BITMAP
1FE0
FFF8
7FF0
3FF0
3FF0
3FF0
3FF0
3790
0380
0380
0380
0380
0380
0380
0380
0380
0380
0380
0300
03C0
00C0
03C0
03C0
ENDCHAR
STARTCHAR Tcaron
ENCODING 356
SWIDTH 622 0
DWIDTH 12 0
BBX 11 25 1 -2
BITMAP
6180
71C0
3380
3F80
3F00
1F00
1E00
0000
3F00
FFE0
7FC0
7FC0
7FC0
7FC0
7FC0
4E40
0E00
0E00
0E00
0E00
0E00
0E00
0E00
0E00
0E00
ENDCHAR
STARTCHAR tcaron
ENCODING 357
SWIDTH 622 0
DWIDTH 12 0
BBX 11 25 1 -2
BITMAP
3080
71C0
39C0
3B80
1F80
1F00
0F00
0000
3F00
FFE0
7FC0
7FC0
7FC0
7FC0
7FC0
4E40
0E00
0E00
0E00
0E00
0E00
0E00
0E00
0E00
0E00
ENDCHAR
STARTCHAR Utilde
ENCODING 360
SWIDTH 637 0
DWIDTH 13 0
BBX 13 22 0 -1
BITMAP
1280
7BC0
3FE0
1FC0
0800
0000
BDC0
7DF8
3DE0
3DE0
3DE0
3DE0
3DC0
3DC0
39C0
3DC0
3DC0
1DC0
1FC0
1F80
0F00
0B00
ENDCHAR
STARTCHAR utilde
ENCODING 361
SWIDTH 708 0
DWIDTH 14 0
BBX 14 21 0 0
BITMAP
08C0
3BE0
1FE0
1FE0
0400
0000
9E00
7CFC
3CF8
3CF8
3EF0
3EF0
1EF0
1EF0
1CF0
1CF0
1EE0
1EE0
0FE0
0FE0
06C0
ENDCHAR
STARTCHAR Umacron
ENCODING 362
SWIDTH 637 0
DWIDTH 13 0
BBX 13 19 0 -1
BITMAP
1FC0
1FC0
0000
BDC0
7DF8
3DE0
3DE0
3DE0
3DE0
3DC0
3DC0
39C0
3DC0
3DC0
1DC0
1FC0
1F80
0F00
0B00
ENDCHAR
STARTCHAR umacron
ENCODING 363
SWIDTH 708 0
DWIDTH 14 0
BBX 14 18 0 0
BITMAP
0FE0
0FC0
0000
9E00
7CFC
3CF8
3CF8
3EF0
3EF0
1EF0
1EF0
1CF0
1CF0
1EE0
1EE0
0FE0
0FE0
06C0
ENDCHAR
STARTCHAR Ubreve
ENCODING 364
SWIDTH 637 0
DWIDTH 13 0
BBX 13 23 0 -1
BITMAP
1CE0
0CE0
0FC0
0FC0
0580
0040
0000
BDC0
7DF8
3DE0
3DE0
3DE0
3DE0
3DC0
3DC0
39C0
3DC0
3DC0
1DC0
1FC0
1F80
0F00
0B00
ENDCHAR
STARTCHAR ubreve
ENCODING 365
SWIDTH 708 0
DWIDTH 14 0
BBX 14 22 0 0
BITMAP
0C70
0E60
07E0
07E0
02C0
0020
0000
9E00
7CFC
3CF8
3CF8
3EF0
3EF0
1EF0
1EF0
1CF0
1CF0
1EE0
1EE0
0FE0
0FE0
06C0
ENDCHAR
STARTCHAR Uring
ENCODING 366
SWIDTH 637 0
DWIDTH 13 0
BBX 13 22 0 -1
BITMAP
0F80
0D80
0C80
0D80
0700
0000
BDC0
7DF8
3DE0
3DE0
3DE0
3DE0
3DC0
3DC0
39C0
3DC0
3DC0
1DC0
1FC0
1F80
0F00
0B00
ENDCHAR
STARTCHAR uring
ENCODING 367
SWIDTH 708 0
DWIDTH 14 0
BBX 14 21 0 0
BITMAP
07C0
06C0
0440
06C0
0380
0000
9E00
7CFC
3CF8
3CF8
3EF0
3EF0
1EF0
1EF0
1CF0
1CF0
1EE0
1EE0
0FE0
0FE0
06C0
ENDCHAR
STARTCHAR Uhungarumlaut
ENCODING 368
SWIDTH 637 0
DWIDTH 13 0
BBX 13 24 0 -1
BITMAP
0840
0CF0
0EE0
1CC0
19C0
3180
2100
0000
BDC0
7DF8
3DE0
3DE0
3DE0
3DE0
3DC0
3DC0
39C0
3DC0
3DC0
1DC0
1FC0
1F80
0F00
0B00
ENDCHAR
STARTCHAR uhungarumlaut
ENCODING 369
SWIDTH 708 0
DWIDTH 14 0
BBX 14 23 0 0
BITMAP
0440
0678
0F70
0EE0
1CC0
1980
1080
0000
9E00
7CFC
3CF8
3CF8
3EF0
3EF0
1EF0
1EF0
1CF0
1CF0
1EE0
1EE0
0FE0
0FE0
06C0
ENDCHAR
STARTCHAR Uogonek
ENCODING 370
SWIDTH 637 0
DWIDTH 13 0
BBX 13 21 0 -6
BITMAP
BDC0
7DF8
3DE0
3DE0
3DE0
3DE0
3DC0
3DC0
39C0
3DC0
3DC0
1DC0
1FC0
1F80
0F00
0B00
0300
0300
03A0
03E0
01E0
ENDCHAR
STARTCHAR uogonek
ENCODING 371
SWIDTH 662 0
DWIDTH 13 0
BBX 14 21 0 -6
BITMAP
9C00
7CFC
3CF8
3CF8
3CF0
3EF0
3EF0
1CF0
1CE0
1CE0
1EE0
1EE0
0FE0
0FE0
07C0
0300
0600
0700
03A0
03E0
01E0
ENDCHAR
STARTCHAR Wcircumflex
ENCODING 372
SWIDTH 777 0
DWIDTH 16 0
BBX 16 23 0 0
BITMAP
03C0
07C0
07E0
0EE0
0C70
1C30
0820
0000
0998
FD9F
7FBC
3FB8
1FF8
1FF0
1FF0
0FF0
0FF0
07E0
07E0
07E0
06E0
06C0
02C0
ENDCHAR
STARTCHAR wcircumflex
ENCODING 373
SWIDTH 704 0
DWIDTH 14 0
BBX 14 23 0 0
BITMAP
0780
0780
0FC0
0FE0
1CE0
1870
1020
0000
1B60
FB3C
3BB8
3BF0
1BF0
1FF0
1FE0
0FE0
0FE0
0FE0
0FE0
06E0
06C0
06C0
02C0
ENDCHAR
STARTCHAR Ycircumflex
ENCODING 374
SWIDTH 688 0
DWIDTH 14 0
BBX 14 24 0 -1
BITMAP
0780
0780
0FC0
0FC0
1CE0
1860
3020
0000
BC40
7CFC
1EF0
0EE0
07E0
07C0
03C0
03C0
03C0
01C0
01C0
01C0
01C0
01C0
0180
0140
ENDCHAR
STARTCHAR ycircumflex
ENCODING 375
SWIDTH 604 0
DWIDTH 12 0
BBX 12 24 0 -1
BITMAP
0F00
0F00
1F80
1F80
39C0
30E0
6040
0000
B900
79F0
1DC0
1FC0
0F80
0F00
0F00
0700
0700
0700
0700
0700
0700
0700
0700
0700
ENDCHAR
STARTCHAR Ydieresis
ENCODING 376
SWIDTH 688 0
DWIDTH 14 0
BBX 14 22 0 -1
BITMAP
3CF0
3CF0
3CF0
3CF0
3CF0
0000
BC40
7CFC
1EF0
0EE0
07E0
07C0
03C0
03C0
03C0
01C0
01C0
01C0
01C0
01C0
0180
0140
ENDCHAR
STARTCHAR Zacute
ENCODING 377
SWIDTH 695 0
DWIDTH 14 0
BBX 13 22 1 -1
BITMAP
0030
0070
00F8
01E0
0100
0000
3F80
FFF8
FFF0
7FE0
7FE0
7FC0
3FC0
2780
0F00
0E00
0E00
1C00
1F00
3F80
3F00
0200
ENDCHAR
STARTCHAR zacute
ENCODING 378
SWIDTH 622 0
DWIDTH 12 0
BBX 12 22 1 -1
BITMAP
0060
00E0
01F0
03C0
0200
0000
7F80
FFE0
FFC0
7FC0
7F80
3F80
3F80
2700
0E00
0E00
0C00
0C00
1B00
1F00
1F00
1900
ENDCHAR
STARTCHAR Zdotaccent
ENCODING 379
SWIDTH 695 0
DWIDTH 14 0
BBX 13 24 1 -1
BITMAP
1780
0F80
0F80
0F80
0F80
0F80
0800
0000
3F80
FFF8
FFF0
7FE0
7FE0
7FC0
3FC0
2780
0F00
0E00
0E00
1C00
1F00
3F80
3F00
0200
ENDCHAR
STARTCHAR zdotaccent
ENCODING 380
SWIDTH 622 0
DWIDTH 12 0
BBX 11 24 1 -1
BITMAP
0E00
3F00
1F00
1F00
1F00
1F00
2000
0000
7F80
FFE0
FFC0
7FC0
7F80
3F80
3F80
2700
0E00
0E00
0C00
0C00
1B00
1F00
1F00
1900
ENDCHAR
STARTCHAR Zcaron
ENCODING 381
SWIDTH 693 0
DWIDTH 14 0
BBX 13 26 1 -1
BITMAP
30C0
38E0
19C0
1F80
1F80
0F80
0F00
0000
0000
0000
3F80
FFF8
FFF0
7FE0
7FE0
7FC0
3FC0
2780
0F00
0E00
0E00
1C00
1F00
3F80
3F00
0200
ENDCHAR
STARTCHAR zcaron
ENCODING 382
SWIDTH 621 0
DWIDTH 12 0
BBX 11 26 1 -1
BITMAP
6180
71C0
3380
3F80
3F00
1F00
1E00
0000
0000
0000
7F80
FFE0
FFC0
7FC0
7F80
7F80
3F80
2700
0E00
0E00
0C00
0C00
1B00
1F00
1F00
1900
ENDCHAR
STARTCHAR DZ
ENCODING 497
SWIDTH 194 0
DWIDTH 4 0
BBX 1 1 0 0
BITMAP
00
ENDCHAR
STARTCHAR Dz
ENCODING 498
SWIDTH 194 0
DWIDTH 4 0
BBX 1 1 0 0
BITMAP
00
ENDCHAR
STARTCHAR dotlessj
ENCODING 567
SWIDTH 458 0
DWIDTH 9 0
BBX 10 16 -1 -1
BITMAP
1E00
0FC0
0F80
0F80
0700
0700
0700
0700
0700
0700
E700
7700
7700
7F00
3E00
0500
ENDCHAR
STARTCHAR circumflex
ENCODING 710
SWIDTH 528 0
DWIDTH 11 0
BBX 9 7 1 14
BITMAP
3C00
3E00
7E00
7F00
6700
C380
8100
ENDCHAR
STARTCHAR caron
ENCODING 711
SWIDTH 486 0
DWIDTH 10 0
BBX 9 7 0 14
BITMAP
E180
6380
7380
3F00
3F00
3E00
1E00
ENDCHAR
STARTCHAR breve
ENCODING 728
SWIDTH 464 0
DWIDTH 9 0
BBX 8 6 1 -2
BITMAP
C7
C6
FE
7C
2C
04
ENDCHAR
STARTCHAR dotaccent
ENCODING 729
SWIDTH 388 0
DWIDTH 8 0
BBX 6 7 1 4
BITMAP
38
F8
F8
7C
7C
78
80
ENDCHAR
STARTCHAR ring
ENCODING 730
SWIDTH 370 0
DWIDTH 7 0
BBX 5 5 1 6
BITMAP
F8
D8
C8
D8
70
ENDCHAR
STARTCHAR ogonek
ENCODING 731
SWIDTH 360 0
DWIDTH 7 0
BBX 5 7 1 0
BITMAP
60
C0
C0
C0
E8
78
78
ENDCHAR
STARTCHAR tilde
ENCODING 732
SWIDTH 535 0
DWIDTH 11 0
BBX 9 5 1 -2
BITMAP
4600
EF00
FF80
7F00
2000
ENDCHAR
STARTCHAR hungarumlaut
ENCODING 733
SWIDTH 554 0
DWIDTH 11 0
BBX 10 7 1 14
BITMAP
2200
33C0
7B80
7700
E600
C400
8C00
ENDCHAR
STARTCHAR dotaccentcmb
ENCODING 775
SWIDTH 396 0
DWIDTH 8 0
BBX 6 7 1 7
BITMAP
3C
FC
F8
7C
7C
7C
80
ENDCHAR
STARTCHAR uni030F
ENCODING 783
SWIDTH 549 0
DWIDTH 11 0
BBX 10 7 0 14
BITMAP
1100
F300
7780
3B80
19C0
08C0
0C40
ENDCHAR
STARTCHAR uni0311
ENCODING 785
SWIDTH 490 0
DWIDTH 10 0
BBX 8 5 1 7
BITMAP
7C
7E
66
E7
E0
ENDCHAR
STARTCHAR uni0326
ENCODING 806
SWIDTH 360 0
DWIDTH 7 0
BBX 5 9 1 -2
BITMAP
F8
F8
F8
F8
F8
18
18
18
18
ENDCHAR
STARTCHAR endash
ENCODING 8211
SWIDTH 478 0
DWIDTH 10 0
BBX 8 4 1 6
BITMAP
FB
FE
FE
FE
ENDCHAR
STARTCHAR emdash
ENCODING 8212
SWIDTH 567 0
DWIDTH 11 0
BBX 9 4 1 6
BITMAP
EE80
FF80
FF80
FF80
ENDCHAR
STARTCHAR quoteleft
ENCODING 8216
SWIDTH 373 0
DWIDTH 7 0
BBX 5 10 1 5
BITMAP
60
60
E0
C0
F8
F8
F8
F8
F8
F8
ENDCHAR
STARTCHAR quoteright
ENCODING 8217
SWIDTH 369 0
DWIDTH 7 0
BBX 5 10 1 5
BITMAP
E8
F8
F8
F8
F8
F8
18
18
18
18
ENDCHAR
STARTCHAR quotesinglbase
ENCODING 8218
SWIDTH 369 0
DWIDTH 7 0
BBX 5 10 1 5
BITMAP
E8
F8
F8
F8
F8
F8
18
18
18
18
ENDCHAR
STARTCHAR quotedblleft
ENCODING 8220
SWIDTH 687 0
DWIDTH 14 0
BBX 12 10 1 5
BITMAP
6180
6180
E180
C180
FBF0
FBF0
F9F0
FBF0
F9F0
F9F0
ENDCHAR
STARTCHAR quotedblright
ENCODING 8221
SWIDTH 677 0
DWIDTH 14 0
BBX 11 10 1 5
BITMAP
F9A0
FBE0
FBE0
FBE0
FBE0
FBE0
1860
1860
1860
1060
ENDCHAR
STARTCHAR quotedblbase
ENCODING 8222
SWIDTH 697 0
DWIDTH 14 0
BBX 12 10 1 -6
BITMAP
E990
F9F0
F9F0
F9F0
F9F0
F9F0
1830
1830
1870
1860
ENDCHAR
STARTCHAR ellipsis
ENCODING 8230
SWIDTH 1462 0
DWIDTH 29 0
BBX 27 6 1 1
BITMAP
F81F03E0
F81F03E0
F81F03E0
F80F03E0
780F01E0
780F01E0
ENDCHAR
STARTCHAR guilsinglleft
ENCODING 8249
SWIDTH 459 0
DWIDTH 9 0
BBX 8 11 1 1
BITMAP
3F
3C
7C
F8
F0
F0
F8
78
3C
1E
03
ENDCHAR
STARTCHAR guilsinglright
ENCODING 8250
SWIDTH 432 0
DWIDTH 9 0
BBX 8 11 0 2
BITMAP
88
7C
3C
3C
1E
0F
1F
1F
1C
3C
78
ENDCHAR
STARTCHAR fraction
ENCODING 8260
SWIDTH 371 0
DWIDTH 7 0
BBX 7 16 0 -1
BITMAP
FC
7E
3C
3C
3C
3C
3C
3C
3C
3C
38
1C
18
18
18
08
ENDCHAR
STARTCHAR Euro
ENCODING 8364
SWIDTH 587 0
DWIDTH 12 0
BBX 11 19 0 -4
BITMAP
0700
1FC0
1FE0
3FE0
3FE0
3FE0
3FE0
3DE0
FFE0
1C00
7E00
9FC0
1DC0
1FC0
0F80
0700
0500
0600
0200
ENDCHAR
STARTCHAR trademark
ENCODING 8482
SWIDTH 785 0
DWIDTH 16 0
BBX 15 10 0 5
BITMAP
FFEE
7CEE
7CFC
7CFC
5CFC
187C
185C
185C
185C
1800
ENDCHAR
STARTCHAR minus
ENCODING 8722
SWIDTH 478 0
DWIDTH 10 0
BBX 8 4 1 6
BITMAP
FB
FE
FE
FE
ENDCHAR
STARTCHAR commaaccent
ENCODING 63171
SWIDTH 360 0
DWIDTH 7 0
BBX 5 10 1 -3
BITMAP
F8
F8
F8
F8
F8
F8
18
18
18
18
ENDCHAR
STARTCHAR .notdef
ENCODING -1
SWIDTH 365 0
DWIDTH 7 0
BBX 5 13 1 0
BITMAP
F8
88
88
88
88
88
88
88
88
88
88
88
F8
ENDCHAR
STARTCHAR .null
ENCODING -1
SWIDTH 0 0
DWIDTH 0 0
BBX 1 1 0 0
BITMAP
00
ENDCHAR
STARTCHAR nonmarkingreturn
ENCODING -1
SWIDTH 333 0
DWIDTH 7 0
BBX 1 1 0 0
BITMAP
00
ENDCHAR
ENDFONT
